<svg xmlns="http://www.w3.org/2000/svg" version="1.1" xmlns:xlink="http://www.w3.org/1999/xlink" xmlns:svgjs="http://svgjs.dev/svgjs" viewBox="0 0 800 800" opacity="0.2"><defs><linearGradient x1="50%" y1="0%" x2="50%" y2="100%" id="ccchaos-grad"><stop stop-color="hsl(162, 100%, 58%)" stop-opacity="1" offset="0%"></stop><stop stop-color="hsl(270, 73%, 53%)" stop-opacity="1" offset="100%"></stop></linearGradient></defs><g stroke-width="2" stroke="url(#ccchaos-grad)" fill="none" stroke-linecap="round"><path d="M404.91 -21.5Q413.7 -15.89 422.3 -9.89 430.77 -3.47 439.17 3.38 447.59 10.68 456.09 18.39 464.76 26.47 473.67 34.87 482.89 43.5 492.49 52.28 502.52 61.1 513.03 69.87 524.06 78.48 535.64 86.83 547.77 94.83 560.45 102.39 573.66 109.47 587.37 116.01 601.52 122 616.05 127.44 630.89 132.36 645.95 136.82 661.14 140.89 676.36 144.66 691.49 148.25 706.44 151.77 721.1 155.36 735.38 159.13 749.17 163.21 762.4 167.72 774.99 172.74 786.9 178.35 785.37 190.9 781.11 203.45 774.52 216 766.27 228.54 757.15 241.09 748.07 253.64 739.91 266.18 733.48 278.73 729.41 291.28 728.09 303.83 729.66 316.38 733.97 328.92 740.58 341.47 748.86 354.02 757.98 366.57 767.06 379.11 775.19 391.66 781.59 404.21 785.62 416.76 786.9 429.3 785.28 441.85 780.94 454.4 774.29 466.95 766 479.5 756.87 492.04 747.8 504.59 739.68 517.14 733.32 529.69 729.32 542.23 728.1 554.78 729.76 567.33 734.14 579.88 726.34 587.32 718.95 595.88 711.84 605.47 704.92 615.98 698.06 627.23 691.17 639.04 684.12 651.18 676.83 663.4 669.2 675.47 661.15 687.13 652.61 698.16 643.54 708.36 633.9 717.54 623.67 725.59 612.85 732.41 601.44 737.98 589.47 742.31 576.99 745.5 564.05 747.65 550.7 748.96 537.02 749.61 523.09 749.87 508.98 749.99 494.79 750.23 480.58 750.88 466.45 752.18 452.47 754.36 438.7 757.62 425.19 762.11 412.01 767.91 399.19 775.09 386.75 783.62 377.46 780.8 368.35 779.03 359.37 778.09 350.46 777.74 341.53 777.72 332.55 777.75 323.44 777.55 314.16 776.86 304.67 775.43 294.93 773.07 284.92 769.61 274.62 764.94 264.02 758.99 253.13 751.76 241.97 743.3 230.54 733.7 218.88 723.11 207.02 711.73 194.99 699.77 182.84 687.47 170.62 675.09 158.35 662.88 146.08 651.08 133.86 639.91 121.71 629.57 109.66 620.21 97.74 611.94 85.97 604.84 74.35 598.9 62.89 594.09 51.59 590.34 40.43 587.5 40.05 574.85 39.9 562.2 40.01 549.55 40.36 536.9 40.92 524.25 41.64 511.61 42.44 498.96 43.24 486.31 43.98 473.66 44.56 461.01 44.95 448.36 45.09 435.71 44.98 423.06 44.62 410.41 44.06 397.76 43.34 385.11 42.54 372.47 41.73 359.82 41 347.17 40.42 334.52 40.04 321.87 39.9 309.22 40.02 296.57 40.38 283.92 40.94 271.27 41.66 258.62 42.46 245.98 43.27 233.33 44 220.68 44.58 208.03 44.95 195.38 45.09 182.73 56.65 174.44 68.11 166.73 79.46 159.64 90.66 153.18 101.7 147.35 112.56 142.09 123.24 137.35 133.75 133.03 144.08 129.04 154.26 125.27 164.31 121.58 174.25 117.87 184.12 114.02 193.97 109.91 203.83 105.46 213.75 100.58 223.78 95.23 233.97 89.37 244.35 82.99 254.96 76.1 265.85 68.73 277.03 60.94 288.53 52.8 300.36 44.39 312.52 35.81 325 27.14 337.78 18.5 350.84 9.96 364.13 1.63 377.61 -6.42 398.07 -17.82 404.91 -21.5" stroke-dasharray="11 4" transform="rotate(0, 400, 400)" opacity="0.05"></path><path d="M402.05 -14.17Q410.55 -8.69 418.92 -2.82 427.25 3.46 435.59 10.18 444.01 17.33 452.59 24.89 461.4 32.82 470.5 41.06 479.95 49.54 489.81 58.19 500.13 66.89 510.93 75.56 522.25 84.1 534.08 92.4 546.44 100.37 559.3 107.94 572.64 115.05 586.41 121.64 600.55 127.7 614.99 133.22 629.67 138.21 644.49 142.73 659.35 146.84 674.17 150.61 688.85 154.16 703.28 157.59 717.38 161.03 731.04 164.58 744.2 168.39 756.79 172.55 768.74 177.17 780.01 182.32 777.74 194.65 772.94 206.98 766.06 219.3 757.76 231.63 748.82 243.96 740.08 256.28 732.37 268.61 726.43 280.93 722.82 293.26 721.87 305.59 723.68 317.91 728.07 330.24 734.64 342.57 742.75 354.89 751.65 367.22 760.48 379.54 768.41 391.87 774.7 404.2 778.74 416.52 780.16 428.85 778.81 441.18 774.83 453.5 768.6 465.83 760.69 478.15 751.87 490.48 742.97 502.81 734.83 515.13 728.21 527.46 723.76 539.78 721.88 552.11 722.76 564.43 726.31 576.76 718.33 584.69 710.79 593.64 703.59 603.53 696.62 614.22 689.78 625.53 682.98 637.26 676.1 649.21 669.05 661.13 661.74 672.8 654.08 683.99 646.02 694.5 637.48 704.13 628.42 712.75 618.82 720.24 608.66 726.55 597.94 731.66 586.67 735.61 574.88 738.48 562.61 740.4 549.9 741.55 536.82 742.13 523.43 742.38 509.81 742.54 496.03 742.87 482.17 743.61 468.29 745.01 454.49 747.28 440.82 750.59 427.34 755.08 414.12 760.85 401.2 767.92 388.61 776.29 379.75 773.49 371.01 771.7 362.33 770.72 353.64 770.31 344.88 770.23 336 770.23 326.96 770.03 317.7 769.39 308.2 768.08 298.43 765.91 288.38 762.71 278.03 758.36 267.39 752.8 256.47 746.01 245.28 738.02 233.86 728.92 222.22 718.82 210.41 707.91 198.47 696.36 186.43 684.42 174.34 672.3 162.23 660.26 150.14 648.52 138.12 637.3 126.19 626.79 114.37 617.17 102.69 608.54 91.16 601 79.79 594.58 68.57 589.27 57.51 585 46.59 581.7 46.25 569.31 46.16 556.92 46.34 544.53 46.78 532.14 47.42 519.75 48.21 507.35 49.08 494.96 49.94 482.57 50.71 470.18 51.31 457.79 51.7 445.4 51.83 433.01 51.69 420.62 51.3 408.23 50.69 395.84 49.92 383.45 49.06 371.06 48.19 358.66 47.4 346.27 46.76 333.88 46.34 321.49 46.16 309.1 46.25 296.71 46.6 284.32 47.18 271.93 47.93 259.54 48.78 247.15 49.65 234.75 50.46 222.36 51.13 209.97 51.6 197.58 51.82 185.19 63.21 177.35 74.51 170.1 85.71 163.46 96.77 157.45 107.67 152.02 118.4 147.13 128.96 142.7 139.33 138.65 149.53 134.87 159.56 131.26 169.45 127.69 179.22 124.04 188.89 120.22 198.51 116.12 208.11 111.66 217.74 106.76 227.45 101.39 237.27 95.51 247.25 89.12 257.44 82.24 267.86 74.9 278.56 67.16 289.56 59.09 300.88 50.76 312.53 42.28 324.5 33.73 336.79 25.2 349.38 16.8 362.24 8.59 375.34 0.66 395.34 -10.56 402.05 -14.17" stroke-dasharray="4 9" transform="rotate(4.759259259259259, 400, 400)" opacity="0.07"></path><path d="M399.14 -6.87Q407.42 -1.5 415.65 4.24 423.91 10.39 432.26 16.97 440.75 23.97 449.46 31.37 458.45 39.15 467.77 47.23 477.48 55.57 487.61 64.07 498.21 72.65 509.28 81.22 520.85 89.67 532.91 97.92 545.45 105.87 558.43 113.44 571.83 120.57 585.6 127.21 599.66 133.34 613.96 138.93 628.41 144 642.93 148.59 657.42 152.75 671.81 156.55 685.99 160.08 699.87 163.45 713.38 166.76 726.43 170.14 738.96 173.69 750.9 177.54 762.22 181.78 772.88 186.51 769.93 198.62 764.67 210.73 757.56 222.84 749.26 234.95 740.53 247.06 732.15 259.17 724.91 271.28 719.45 283.39 716.28 295.5 715.68 307.61 717.7 319.72 722.18 331.83 728.69 343.94 736.64 356.05 745.31 368.16 753.9 380.27 761.64 392.38 767.81 404.49 771.85 416.6 773.4 428.71 772.32 440.82 768.69 452.93 762.86 465.04 755.35 477.14 746.85 489.25 738.14 501.36 730.01 513.47 723.19 525.58 718.33 537.69 715.85 549.8 715.98 561.91 718.71 574.02 710.55 582.38 702.84 591.68 695.52 601.8 688.47 612.6 681.62 623.9 674.86 635.51 668.1 647.21 661.24 658.79 654.19 670.02 646.87 680.72 639.21 690.68 631.15 699.75 622.63 707.81 613.62 714.77 604.09 720.58 594.03 725.25 583.44 728.83 572.33 731.41 560.74 733.13 548.69 734.14 536.24 734.67 523.44 734.91 510.35 735.12 497.04 735.53 483.58 736.37 470.05 737.86 456.5 740.21 443.02 743.57 429.65 748.07 416.47 753.79 403.52 760.77 390.85 768.98 373.89 764.78 356.9 762.89 348.25 762.76 339.42 762.71 330.4 762.51 321.12 761.92 311.59 760.72 301.76 758.72 291.65 755.76 281.25 751.73 270.56 746.54 259.61 740.18 248.41 732.65 237 724.04 225.4 714.43 213.66 703.99 201.81 692.88 189.9 681.31 177.96 669.5 166.02 657.66 154.13 646.03 142.32 634.8 130.62 624.19 119.04 614.34 107.61 605.4 96.33 597.47 85.21 590.59 74.24 584.78 63.43 580.02 52.75 576.22 52.46 564.09 52.44 551.95 52.71 539.81 53.23 527.67 53.95 515.53 54.82 503.4 55.75 491.26 56.65 479.12 57.45 466.98 58.07 454.84 58.46 442.7 58.58 430.57 58.41 418.43 57.98 406.29 57.32 394.15 56.5 382.01 55.58 369.88 54.66 357.74 53.81 345.6 53.12 333.46 52.64 321.32 52.42 309.18 52.49 297.05 52.83 284.91 53.41 272.77 54.18 260.63 55.07 248.49 56 236.35 56.89 224.21 57.64 212.08 58.21 199.94 58.52 187.8 69.74 180.42 80.89 173.63 91.94 167.45 102.86 161.86 113.63 156.83 124.24 152.28 134.67 148.15 144.92 144.35 154.99 140.76 164.89 137.28 174.64 133.8 184.24 130.21 193.73 126.41 203.14 122.31 212.51 117.83 221.88 112.91 231.28 107.51 240.77 101.61 250.38 95.22 260.16 88.34 270.14 81.03 280.38 73.34 290.88 65.34 301.69 57.1 312.81 48.72 324.25 40.29 336.02 31.89 348.11 23.61 360.5 15.53 373.16 7.72 392.59 -3.31 399.14 -6.87" stroke-dasharray="1 4" transform="rotate(9.518518518518517, 400, 400)" opacity="0.09"></path><path d="M396.24 0.44Q404.39 5.7 412.57 11.32 420.83 17.33 429.25 23.77 437.87 30.62 446.76 37.87 455.96 45.48 465.52 53.41 475.49 61.6 485.89 69.95 496.75 78.41 508.07 86.86 519.85 95.22 532.08 103.41 544.74 111.32 557.8 118.89 571.2 126.04 584.9 132.73 598.83 138.91 612.92 144.58 627.08 149.74 641.25 154.4 655.32 158.62 669.23 162.46 682.88 166 696.2 169.33 709.11 172.55 721.54 175.78 733.43 179.12 744.75 182.69 758.71 194.7 756.29 214.71 749.01 226.6 740.77 238.5 732.28 250.4 724.3 262.3 717.51 274.2 712.53 286.09 709.78 297.99 709.52 309.89 711.75 321.79 716.29 333.68 722.73 345.58 730.52 357.48 738.96 369.38 747.32 381.27 754.86 393.17 760.92 405.07 764.96 416.97 766.63 428.86 765.79 440.76 762.51 452.66 757.07 464.56 749.96 476.45 741.8 488.35 733.3 500.25 725.22 512.15 718.25 524.04 713.02 535.94 709.99 547.84 709.41 559.74 711.35 571.63 702.99 580.37 695.12 589.94 687.65 600.23 680.51 611.08 673.6 622.31 666.85 633.73 660.16 645.14 653.43 656.33 646.59 667.11 639.56 677.29 632.25 686.7 624.6 695.22 616.57 702.72 608.09 709.16 599.15 714.5 589.71 718.75 579.77 721.99 569.34 724.3 558.42 725.82 547.04 726.72 535.23 727.2 523.05 727.45 510.54 727.71 497.76 728.2 484.77 729.14 471.64 730.73 458.43 733.15 445.21 736.56 432.04 741.06 418.97 746.73 406.08 753.6 393.39 761.65 376.89 757.45 360.17 755.47 351.57 755.28 342.75 755.2 333.7 755 324.37 754.45 314.77 753.35 304.88 751.51 294.7 748.78 284.24 745.04 273.51 740.21 262.54 734.26 251.34 727.19 239.96 719.05 228.42 709.94 216.76 699.98 205.03 689.32 193.26 678.14 181.48 666.66 169.74 655.07 158.06 643.58 146.48 632.4 135.01 621.73 123.69 611.71 112.51 602.51 101.48 594.22 90.62 586.92 79.91 580.64 69.34 575.38 58.91 571.09 58.68 559.2 58.75 547.31 59.1 535.42 59.71 523.53 60.51 511.64 61.45 499.75 62.44 487.86 63.38 475.97 64.21 464.07 64.84 452.18 65.22 440.29 65.32 428.4 65.12 416.51 64.65 404.62 63.95 392.73 63.08 380.84 62.11 368.95 61.13 357.06 60.23 345.17 59.48 333.28 58.95 321.39 58.69 309.5 58.72 297.61 59.04 285.71 59.62 273.82 60.41 261.93 61.33 250.04 62.32 238.15 63.27 226.26 64.12 214.37 64.77 202.48 65.19 190.59 76.24 183.68 87.24 177.36 98.14 171.62 108.92 166.45 119.56 161.78 130.05 157.56 140.36 153.71 150.5 150.12 160.46 146.7 170.24 143.34 179.85 139.94 189.31 136.39 198.64 132.59 207.87 128.48 217.03 123.97 226.15 119.02 235.28 113.6 244.46 107.68 253.72 101.28 263.12 94.43 272.69 87.15 282.47 79.51 292.5 71.58 302.8 63.44 313.39 55.17 324.3 46.85 335.54 38.58 347.09 30.43 358.96 22.49 371.13 14.81 389.9 3.95 396.24 0.44" stroke-dasharray="3 12" transform="rotate(14.277777777777777, 400, 400)" opacity="0.10"></path><path d="M393.47 7.76Q401.57 12.89 409.76 18.39 418.09 24.27 426.63 30.57 435.42 37.27 444.51 44.36 453.95 51.81 463.76 59.58 473.99 67.61 484.64 75.82 495.73 84.14 507.25 92.47 519.2 100.74 531.55 108.86 544.28 116.73 557.35 124.28 570.69 131.45 584.26 138.18 597.99 144.42 611.81 150.17 625.64 155.4 639.4 160.16 653.02 164.45 666.42 168.35 679.52 171.91 692.25 175.22 704.55 178.38 716.36 181.49 727.63 184.66 738.33 187.98 751.14 199.39 747.83 218.91 740.44 230.59 732.3 242.28 724.09 253.97 716.51 265.66 710.19 277.35 705.68 289.04 703.34 300.73 703.39 312.42 705.81 324.11 710.4 335.8 716.78 347.49 724.4 359.17 732.62 370.86 740.74 382.55 748.08 394.24 754.02 405.93 758.06 417.62 759.85 429.31 759.25 441 756.29 452.69 751.25 464.38 744.53 476.06 736.71 487.75 728.45 499.44 720.45 511.13 713.38 522.82 707.84 534.51 704.3 546.2 703.06 557.89 704.23 569.57 695.68 578.63 687.63 588.41 680 598.8 672.74 609.63 665.75 620.73 658.97 631.91 652.3 642.98 645.67 653.76 638.98 664.05 632.17 673.7 625.16 682.57 617.88 690.52 610.27 697.49 602.28 703.42 593.87 708.31 585.02 712.17 575.7 715.09 565.91 717.15 555.64 718.5 544.93 719.3 533.78 719.74 522.24 720.01 510.33 720.33 498.12 720.9 485.66 721.94 472.99 723.62 460.18 726.11 447.3 729.56 434.4 734.06 421.54 739.68 408.77 746.44 396.15 754.34 379.96 750.13 363.39 748.07 354.77 747.83 345.92 747.71 336.81 747.5 327.41 746.98 317.73 745.97 307.76 744.28 297.51 741.76 287 738.3 276.24 733.82 265.25 728.26 254.07 721.63 242.73 713.97 231.27 705.34 219.72 695.86 208.12 685.66 196.51 674.9 184.92 663.77 173.39 652.46 161.93 641.16 150.59 630.08 139.38 619.39 128.31 609.26 117.39 599.84 106.63 591.25 96.03 583.56 85.58 576.84 75.26 571.1 65.07 566.31 64.93 554.66 65.08 543.02 65.53 531.37 66.22 519.72 67.11 508.07 68.11 496.43 69.15 484.78 70.13 473.13 70.97 461.48 71.61 449.83 71.98 438.19 72.05 426.54 71.83 414.89 71.32 403.24 70.58 391.59 69.66 379.94 68.64 368.3 67.6 356.65 66.65 345 65.85 333.35 65.27 321.7 64.97 310.06 64.96 298.41 65.25 286.76 65.82 275.11 66.61 263.46 67.57 251.81 68.6 240.17 69.62 228.52 70.54 216.87 71.3 205.22 71.82 193.57 82.71 187.14 93.54 181.28 104.3 175.98 114.94 171.2 125.46 166.88 135.83 162.96 146.03 159.35 156.06 155.96 165.91 152.69 175.58 149.43 185.08 146.08 194.41 142.55 203.6 138.76 212.66 134.62 221.64 130.08 230.55 125.1 239.43 119.65 248.33 113.72 257.28 107.32 266.32 100.48 275.5 93.24 284.86 85.66 294.42 77.81 304.23 69.76 314.31 61.59 324.69 53.4 335.37 45.26 346.38 37.24 357.7 29.43 369.34 21.88 387.37 11.2 393.47 7.76" stroke-dasharray="9 3" transform="rotate(19.037037037037035, 400, 400)" opacity="0.12"></path><path d="M390.92 15.08Q399.03 20.1 407.29 25.47 415.75 31.22 424.45 37.37 433.44 43.92 442.76 50.85 452.43 58.15 462.49 65.75 472.96 73.62 483.83 81.68 495.11 89.86 506.8 98.07 518.86 106.24 531.28 114.28 544.02 122.1 557.02 129.63 570.24 136.81 583.62 143.57 597.09 149.87 610.59 155.69 624.03 161.01 637.35 165.85 650.48 170.23 663.34 174.19 675.87 177.8 688.01 181.12 699.69 184.25 710.89 187.27 721.55 190.29 731.66 193.42 743.38 204.29 739.28 223.32 731.85 234.8 723.86 246.29 715.96 257.77 708.79 269.25 702.94 280.73 698.88 292.22 696.95 303.7 697.29 315.18 699.89 326.66 704.52 338.15 710.82 349.63 718.27 361.11 726.27 372.6 734.16 384.08 741.31 395.56 747.13 407.04 751.16 418.53 753.05 430.01 752.67 441.49 750.04 452.98 745.38 464.46 739.05 475.94 731.59 487.43 723.59 498.91 715.7 510.39 708.57 521.87 702.78 533.36 698.78 544.84 696.92 556.32 697.34 567.81 688.61 577.11 680.37 587.04 672.58 597.46 665.18 608.21 658.09 619.12 651.25 630.01 644.57 640.71 637.98 651.04 631.4 660.83 624.76 669.95 617.99 678.25 611.01 685.66 603.77 692.11 596.21 697.55 588.29 702 579.98 705.5 571.24 708.12 562.06 709.96 552.43 711.16 542.36 711.87 531.87 712.28 520.97 712.58 509.7 712.96 498.09 713.62 486.18 714.75 474.03 716.52 461.69 719.08 449.21 722.56 436.66 727.05 424.07 732.62 411.52 739.28 399.04 747.02 383.02 742.8 366.47 740.66 357.81 740.37 348.88 740.21 339.68 739.99 330.2 739.51 320.43 738.57 310.38 737.02 300.07 734.7 289.51 731.51 278.72 727.35 267.75 722.18 256.6 715.98 245.33 708.78 233.97 700.63 222.55 691.63 211.1 681.89 199.67 671.56 188.29 660.81 176.97 649.81 165.76 638.74 154.67 627.8 143.72 617.14 132.92 606.95 122.27 597.37 111.78 588.52 101.44 580.5 91.25 573.37 81.2 567.17 71.25 561.9 71.2 550.49 71.45 539.08 71.99 527.67 72.77 516.26 73.74 504.85 74.8 493.44 75.89 482.03 76.9 470.61 77.75 459.2 78.38 447.79 78.74 436.38 78.79 424.97 78.53 413.56 77.99 402.15 77.2 390.74 76.23 379.33 75.17 367.92 74.09 356.51 73.08 345.1 72.23 333.69 71.6 322.28 71.25 310.87 71.2 299.46 71.46 288.05 72.01 276.64 72.8 265.24 73.77 253.83 74.84 242.42 75.92 231.01 76.93 219.6 77.78 208.19 78.4 196.78 89.13 190.81 99.81 185.4 110.42 180.52 120.93 176.11 131.32 172.12 141.57 168.48 151.67 165.09 161.59 161.87 171.34 158.72 180.91 155.53 190.3 152.23 199.52 148.71 208.58 144.9 217.51 140.73 226.32 136.16 235.04 131.15 243.71 125.67 252.36 119.72 261.02 113.32 269.74 106.5 278.56 99.31 287.52 91.79 296.65 84.02 305.99 76.07 315.57 68.02 325.43 59.95 335.57 51.93 346.01 44.05 356.77 36.38 367.85 28.96 385.08 18.47 390.92 15.08" stroke-dasharray="5 5" transform="rotate(23.796296296296294, 400, 400)" opacity="0.14"></path><path d="M388.68 22.4Q396.86 27.3 405.24 32.54 413.86 38.16 422.75 44.17 431.96 50.57 441.5 57.34 451.41 64.47 461.7 71.91 472.37 79.62 483.43 87.52 494.86 95.56 506.66 103.65 518.78 111.71 531.2 119.66 543.88 127.43 556.76 134.93 569.8 142.1 582.93 148.89 596.09 155.24 609.21 161.13 622.23 166.54 635.07 171.47 647.68 175.94 659.98 179.98 671.93 183.65 683.46 187 694.54 190.12 705.13 193.09 715.2 196 724.74 198.95 735.45 209.34 730.69 227.92 723.26 239.2 715.45 250.49 707.89 261.77 701.15 273.05 695.76 284.33 692.16 295.61 690.6 306.89 691.23 318.17 693.98 329.45 698.65 340.73 704.86 352.01 712.14 363.29 719.92 374.57 727.58 385.85 734.54 397.13 740.24 408.4 744.25 419.68 746.24 430.96 746.07 442.24 743.75 453.52 739.45 464.8 733.52 476.08 726.42 487.36 718.7 498.64 710.96 509.92 703.81 521.2 697.81 532.48 693.42 543.76 690.99 555.04 690.7 566.32 681.79 575.81 673.37 585.82 665.41 596.2 657.86 606.81 650.65 617.48 643.71 628.04 636.99 638.32 630.41 648.17 623.9 657.45 617.38 666.02 610.79 673.78 604.06 680.65 589.8 691.1 574.63 698.76 566.42 701.1 557.81 702.74 548.79 703.8 539.35 704.45 529.5 704.85 519.24 705.18 508.6 705.63 497.61 706.37 486.29 707.59 474.7 709.44 462.88 712.06 450.86 715.57 438.71 720.06 426.48 725.57 414.21 732.12 401.97 739.7 385.98 735.49 369.35 733.27 360.6 732.93 351.58 732.73 342.28 732.5 332.7 732.03 322.84 731.17 312.72 729.75 302.35 727.62 291.76 724.68 280.98 720.83 270.03 716.02 258.95 710.24 247.77 703.49 236.52 695.81 225.25 687.29 213.98 678.02 202.75 668.14 191.59 657.78 180.52 647.12 169.56 636.32 158.73 625.55 148.05 614.99 137.52 604.78 127.15 595.09 116.94 586.04 106.87 577.72 96.95 570.23 87.15 563.6 77.46 557.87 77.5 546.69 77.85 535.51 78.49 524.34 79.36 513.16 80.4 501.98 81.52 490.8 82.65 479.63 83.68 468.45 84.54 457.27 85.16 446.1 85.5 434.92 85.52 423.74 85.23 412.56 84.65 401.39 83.82 390.21 82.81 379.03 81.7 367.85 80.57 356.68 79.52 345.5 78.61 334.32 77.94 323.15 77.54 311.97 77.45 300.79 77.67 289.61 78.2 278.44 78.98 267.26 79.96 256.08 81.05 244.9 82.19 233.73 83.27 222.55 84.21 211.37 84.93 200.19 95.5 194.69 106.02 189.72 116.48 185.23 126.86 181.17 137.12 177.49 147.26 174.09 157.25 170.9 167.08 167.83 176.73 164.77 186.21 161.65 195.5 158.36 204.63 154.84 213.58 151.01 222.38 146.81 231.05 142.2 239.61 137.15 248.09 131.64 256.52 125.68 264.93 119.29 273.37 112.5 281.86 105.34 290.46 97.89 299.18 90.21 308.09 82.36 317.19 74.42 326.54 66.48 336.15 58.6 346.04 50.86 356.23 43.31 366.74 36.03 383.11 25.72 388.68 22.4" stroke-dasharray="4 11" transform="rotate(28.555555555555554, 400, 400)" opacity="0.16"></path><path d="M386.81 29.72Q395.11 34.5 403.65 39.62 412.46 45.11 421.56 50.97 430.98 57.22 440.75 63.84 450.87 70.8 461.36 78.07 472.2 85.61 483.4 93.36 494.93 101.25 506.78 109.2 518.9 117.15 531.26 125.01 543.82 132.71 556.52 140.18 569.32 147.34 582.14 154.14 594.94 160.54 607.64 166.49 620.19 171.99 632.53 177.01 644.59 181.57 656.32 185.71 667.68 189.45 678.62 192.85 689.1 195.99 699.1 198.93 708.6 201.77 717.58 204.59 727.37 214.55 722.05 232.71 714.68 243.78 707.1 254.86 699.89 265.94 693.59 277.02 688.66 288.1 685.49 299.18 684.3 310.26 685.19 321.34 688.08 332.42 692.77 343.5 698.9 354.57 706.01 365.65 713.56 376.73 721 387.81 727.77 398.89 733.35 409.97 737.34 421.05 739.42 432.13 739.45 443.21 737.42 454.28 733.49 465.36 727.94 476.44 721.21 487.52 713.78 498.6 706.22 509.68 699.09 520.76 692.92 531.83 688.19 542.91 685.24 553.99 684.3 565.07 675.22 574.67 666.63 584.69 658.5 594.98 650.79 605.38 643.44 615.76 636.4 625.94 629.6 635.78 622.99 645.14 616.5 653.89 610.06 661.91 603.6 669.13 597.07 675.48 583.4 685.02 569.01 691.95 553.02 695.23 535.9 697.02 526.66 697.42 517.03 697.79 507.03 698.31 496.66 699.14 485.96 700.45 474.95 702.38 463.68 705.06 452.18 708.59 440.5 713.06 428.68 718.51 416.77 724.95 404.82 732.38 388.76 728.17 371.97 725.89 363.12 725.49 353.98 725.25 344.57 725 334.89 724.56 324.95 723.76 314.77 722.45 304.36 720.5 293.76 717.79 283 714.24 272.1 709.78 261.11 704.4 250.04 698.09 238.94 690.87 227.84 682.83 216.78 674.04 205.77 664.61 194.84 654.67 184.03 644.37 173.34 633.87 162.79 623.32 152.39 612.89 142.14 602.72 132.05 592.98 122.12 583.77 112.33 575.22 102.67 567.4 93.13 560.39 83.7 554.22 83.84 543.27 84.3 532.32 85.03 521.37 85.99 510.42 87.1 499.47 88.27 488.52 89.42 477.57 90.47 466.62 91.33 455.67 91.94 444.72 92.26 433.78 92.25 422.83 91.93 411.88 91.31 400.93 90.44 389.98 89.39 379.03 88.24 368.08 87.07 357.13 85.96 346.18 85.01 335.23 84.28 324.28 83.83 313.33 83.7 302.38 83.88 291.43 84.37 280.48 85.14 269.53 86.12 258.58 87.24 247.64 88.41 236.69 89.56 225.74 90.58 214.79 91.42 203.84 101.81 198.79 112.18 194.23 122.49 190.11 132.73 186.38 142.87 182.97 152.89 179.8 162.78 176.78 172.51 173.83 182.07 170.85 191.46 167.76 200.67 164.49 209.71 160.95 218.57 157.09 227.27 152.85 235.82 148.19 244.24 143.11 252.56 137.58 260.8 131.61 268.99 125.23 277.17 118.46 285.38 111.36 293.64 103.98 302 96.38 310.5 88.64 319.16 80.83 328.03 73.01 337.12 65.27 346.48 57.66 356.11 50.25 366.04 43.1 381.54 32.98 386.81 29.72" stroke-dasharray="11 0" transform="rotate(33.31481481481481, 400, 400)" opacity="0.17"></path><path d="M385.38 37.03Q393.84 41.7 402.56 46.7 411.56 52.05 420.87 57.77 430.51 63.86 440.48 70.32 450.78 77.12 461.43 84.22 472.4 91.6 483.69 99.18 495.26 106.91 507.1 114.73 519.16 122.56 531.4 130.32 543.77 137.95 556.24 145.37 568.73 152.51 581.2 159.33 593.59 165.76 605.84 171.77 617.89 177.34 629.69 182.46 641.2 187.13 652.35 191.36 663.12 195.19 673.47 198.66 683.37 201.83 692.79 204.78 709.97 210.3 725.74 215.88 720.09 226.76 713.39 237.64 706.12 248.52 698.8 259.4 691.97 270.28 686.11 281.16 681.64 292.04 678.89 302.92 678.04 313.79 679.17 324.67 682.2 335.55 686.89 346.43 692.93 357.31 699.86 368.19 707.2 379.07 714.42 389.95 721 400.83 726.46 411.71 730.42 422.59 732.58 433.47 732.8 444.34 731.06 455.22 727.48 466.1 722.32 476.98 715.95 487.86 708.83 498.74 701.47 509.62 694.4 520.5 688.12 531.38 683.1 542.26 679.68 553.14 678.12 564.02 668.89 573.67 660.14 583.62 651.85 593.75 643.97 603.9 636.48 613.94 629.31 623.71 622.43 633.09 615.76 641.93 609.25 650.15 602.84 657.63 590.04 669.72 577 679.24 563.05 684.73 548.28 688.22 531.87 689.54 514.37 690.43 504.98 691.02 495.23 691.94 485.15 693.33 474.74 695.34 464.05 698.07 453.1 701.63 441.93 706.08 430.59 711.46 419.1 717.8 407.52 725.06 391.28 720.87 374.28 718.52 365.3 718.07 356.05 717.79 346.53 717.52 336.76 717.1 326.75 716.35 316.52 715.15 306.1 713.36 295.52 710.87 284.8 707.6 273.99 703.48 263.1 698.48 252.18 692.59 241.25 685.83 230.35 678.26 219.5 669.94 208.73 660.97 198.07 651.46 187.52 641.55 177.11 631.38 166.84 621.09 156.73 610.83 146.78 600.75 136.98 591 127.32 581.7 117.81 572.95 108.42 564.87 99.15 557.52 89.97 550.94 90.22 540.21 90.79 529.49 91.62 518.76 92.66 508.03 93.83 497.31 95.05 486.58 96.22 475.86 97.28 465.13 98.13 454.4 98.73 443.68 99.01 432.95 98.98 422.23 98.62 411.5 97.96 400.78 97.06 390.05 95.97 379.32 94.78 368.6 93.56 357.87 92.41 347.15 91.42 336.42 90.64 325.7 90.14 314.97 89.95 304.24 90.09 293.52 90.55 282.79 91.29 272.07 92.26 261.34 93.39 250.62 94.6 239.89 95.8 229.17 96.91 218.44 97.85 207.71 108.07 203.1 118.27 198.93 128.44 195.16 138.53 191.73 148.55 188.56 158.45 185.58 168.23 182.71 177.87 179.85 187.35 176.93 196.66 173.86 205.79 170.58 214.75 167.02 223.53 163.12 232.14 158.83 240.59 154.14 248.9 149.02 257.08 143.46 265.16 137.49 273.17 131.12 281.13 124.39 289.08 117.34 297.06 110.03 305.09 102.53 313.22 94.9 321.47 87.21 329.89 79.52 338.5 71.92 347.34 64.45 356.43 57.18 365.79 50.17 380.41 40.24 385.38 37.03" stroke-dasharray="6 3" transform="rotate(38.07407407407407, 400, 400)" opacity="0.19"></path><path d="M384.44 44.36Q393.08 48.91 401.99 53.78 411.19 59 420.7 64.58 430.52 70.52 440.66 76.81 451.11 83.44 461.87 90.38 472.92 97.58 484.24 105 495.8 112.58 507.56 120.25 519.49 127.95 531.55 135.61 543.69 143.16 555.85 150.52 568 157.64 580.07 164.45 592.01 170.91 603.77 176.98 615.3 182.63 626.56 187.83 637.49 192.6 648.07 196.93 658.25 200.86 668.02 204.42 677.35 207.65 686.23 210.62 702.41 216.05 717.3 221.37 711.43 232.05 704.7 242.73 697.58 253.41 690.56 264.08 684.12 274.76 678.71 285.44 674.69 296.12 672.34 306.8 671.83 317.48 673.19 328.16 676.33 338.84 681.02 349.52 686.96 360.2 693.72 370.88 700.85 381.56 707.85 392.24 714.23 402.92 719.57 413.6 723.5 424.28 725.73 434.96 726.13 445.64 724.66 456.32 721.42 467 716.63 477.68 710.64 488.36 703.84 499.04 696.7 509.71 689.73 520.39 683.39 531.07 678.13 541.75 674.3 552.43 672.18 563.11 662.81 572.74 653.91 582.57 645.46 592.48 637.42 602.33 629.78 611.99 622.48 621.32 615.48 630.2 608.73 638.53 602.18 646.2 595.76 653.15 583.13 664.25 570.42 672.9 557.07 677.82 543.07 680.92 527.66 682.15 511.26 683.09 502.46 683.75 493.32 684.75 483.85 686.23 474.05 688.31 463.96 691.09 453.58 694.66 442.96 699.09 432.13 704.41 421.12 710.63 409.96 717.74 393.49 713.56 376.22 711.15 367.12 710.65 357.75 710.33 348.13 710.04 338.28 709.62 328.23 708.93 317.98 707.83 307.57 706.19 297.04 703.9 286.4 700.89 275.69 697.09 264.95 692.46 254.19 686.98 243.46 680.66 232.78 673.55 222.17 665.71 211.66 657.2 201.27 648.14 191.01 638.63 180.89 628.81 170.92 618.81 161.1 608.77 151.44 598.83 141.93 589.13 132.57 579.78 123.33 570.91 114.22 562.6 105.2 554.95 96.28 548.01 96.65 537.51 97.32 527 98.25 516.5 99.37 505.99 100.59 495.49 101.85 484.98 103.04 474.48 104.1 463.97 104.94 453.47 105.51 442.96 105.77 432.46 105.7 421.95 105.31 411.44 104.62 400.94 103.68 390.43 102.55 379.93 101.32 369.42 100.07 358.92 98.88 348.41 97.83 337.91 97.01 327.4 96.46 316.89 96.22 306.39 96.31 295.88 96.72 285.38 97.43 274.87 98.38 264.37 99.51 253.86 100.75 243.35 102 232.85 103.18 222.34 104.21 211.84 114.26 207.63 124.3 203.83 134.31 200.38 144.27 197.22 154.15 194.26 163.94 191.45 173.61 188.69 183.15 185.9 192.55 183.02 201.78 179.96 210.84 176.66 219.73 173.06 228.44 169.11 236.97 164.78 245.34 160.05 253.55 154.89 261.63 149.32 269.58 143.34 277.43 136.99 285.21 130.29 292.94 123.31 300.67 116.08 308.41 108.67 316.21 101.15 324.1 93.59 332.11 86.04 340.28 78.57 348.63 71.25 357.2 64.12 366.01 57.24 379.76 47.5 384.44 44.36" stroke-dasharray="5 10" transform="rotate(42.83333333333333, 400, 400)" opacity="0.21"></path><path d="M384.02 51.68Q392.84 56.12 401.94 60.87 411.33 65.95 421.01 71.39 430.99 77.17 441.26 83.31 451.81 89.77 462.64 96.54 473.7 103.57 484.99 110.82 496.47 118.23 508.1 125.76 519.84 133.32 531.66 140.87 543.5 148.32 555.32 155.62 567.07 162.7 578.7 169.51 590.16 175.99 601.41 182.1 612.4 187.81 623.1 193.11 633.46 197.97 643.46 202.41 653.07 206.44 662.27 210.09 679.2 216.31 694.86 221.86 702.35 230.92 696.02 247.91 689.1 258.39 682.4 268.87 676.37 279.35 671.4 289.83 667.81 300.31 665.86 310.79 665.66 321.27 667.23 331.75 670.46 342.23 675.15 352.71 680.98 363.19 687.57 373.67 694.48 384.15 701.26 394.64 707.47 405.12 712.68 415.6 716.57 426.08 718.87 436.56 719.43 447.04 718.22 457.52 715.31 468 710.9 478.48 705.27 488.96 698.8 499.44 691.92 509.92 685.07 520.41 678.72 530.89 673.27 541.37 669.09 551.85 666.45 562.33 656.97 571.86 647.93 581.51 639.33 591.15 631.15 600.65 623.35 609.89 615.91 618.76 608.79 627.13 601.93 634.93 595.31 642.07 588.87 648.48 576.32 658.63 563.84 666.47 550.98 670.85 537.64 673.61 523.12 674.78 507.73 675.77 499.5 676.5 490.94 677.59 482.06 679.15 472.87 681.29 463.37 684.12 453.58 687.71 443.53 692.11 433.25 697.36 422.75 703.47 412.08 710.42 395.32 706.25 377.77 703.78 368.54 703.24 359.07 702.89 349.38 702.57 339.48 702.16 329.4 701.51 319.16 700.49 308.79 698.99 298.33 696.9 287.8 694.13 277.24 690.63 266.66 686.35 256.11 681.27 245.6 675.38 235.16 668.73 224.81 661.35 214.58 653.31 204.48 644.7 194.51 635.61 184.69 626.17 175.03 616.5 165.51 606.71 156.15 596.96 146.94 587.35 137.86 578.01 128.9 569.06 120.06 560.59 111.31 552.7 102.64 545.45 103.13 535.16 103.91 524.87 104.92 514.58 106.11 504.29 107.39 494 108.67 483.71 109.88 473.42 110.93 463.13 111.75 452.84 112.29 442.55 112.52 432.26 112.42 421.97 111.99 411.68 111.26 401.39 110.29 391.1 109.13 380.81 107.87 370.52 106.58 360.23 105.35 349.94 104.26 339.65 103.38 329.36 102.78 319.07 102.49 308.79 102.53 298.5 102.89 288.21 103.56 277.92 104.49 267.63 105.61 257.34 106.86 247.05 108.15 236.76 109.4 226.47 110.52 216.18 120.4 212.36 130.27 208.9 140.12 205.74 149.93 202.81 159.68 200.04 169.34 197.36 178.91 194.7 188.35 191.96 197.66 189.1 206.81 186.03 215.8 182.7 224.63 179.05 233.27 175.06 241.75 170.68 250.05 165.9 258.19 160.71 266.17 155.12 274.02 149.15 281.74 142.82 289.37 136.17 296.93 129.24 304.44 122.1 311.94 114.8 319.45 107.39 327.02 99.96 334.67 92.54 342.43 85.22 350.34 78.04 358.43 71.05 366.72 64.31 379.63 54.76 384.02 51.68" stroke-dasharray="6 7" transform="rotate(47.59259259259259, 400, 400)" opacity="0.23"></path><path d="M384.13 59Q393.13 63.32 402.4 67.94 411.95 72.9 421.77 78.19 431.87 83.82 442.22 89.8 452.82 96.09 463.65 102.68 474.67 109.54 485.87 116.62 497.21 123.87 508.64 131.24 520.14 138.67 531.66 146.09 543.16 153.45 554.58 160.67 565.9 167.71 577.05 174.5 588.01 180.99 598.73 187.13 609.18 192.91 619.31 198.28 629.11 203.25 638.54 207.79 647.59 211.93 656.25 215.69 672.17 222.06 686.93 227.66 693.81 236.53 687.36 253.17 680.67 263.46 674.32 273.74 668.7 284.02 664.17 294.3 661.02 304.58 659.44 314.86 659.53 325.14 661.29 335.42 664.61 345.71 669.28 355.99 675 366.27 681.41 376.55 688.12 386.83 694.68 397.11 700.7 407.39 705.8 417.68 709.64 427.96 712 438.24 712.72 448.52 711.75 458.8 709.16 469.08 705.11 479.36 699.85 489.65 693.72 499.93 687.11 510.21 680.42 520.49 674.09 530.77 668.5 541.05 664.02 551.34 660.92 561.62 651.35 571 642.2 580.41 633.47 589.72 625.14 598.83 617.2 607.63 609.62 616 602.36 623.86 595.4 631.13 582.26 643.27 569.61 653.23 557.29 659.61 544.9 664.08 531.94 666.16 518.43 667.43 503.69 668.59 488.11 670.46 479.8 672.09 471.18 674.3 462.27 677.17 453.08 680.76 443.61 685.14 433.89 690.32 423.94 696.31 413.78 703.1 405.45 700.57 396.85 698.68 388 697.34 378.9 696.43 369.56 695.85 360.01 695.45 350.26 695.11 340.34 694.7 330.27 694.09 320.07 693.15 309.79 691.77 299.43 689.86 289.05 687.32 278.65 684.11 268.27 680.16 257.94 675.46 247.68 669.99 237.51 663.78 227.44 656.86 217.5 649.28 207.7 641.13 198.04 632.48 188.53 623.44 179.18 614.11 169.97 604.62 160.91 595.09 151.99 585.62 143.2 576.35 134.53 567.38 125.96 558.81 117.47 550.73 109.05 543.21 109.66 533.14 110.54 523.06 111.64 512.98 112.89 502.9 114.21 492.83 115.52 482.75 116.73 472.67 117.77 462.6 118.57 452.52 119.08 442.44 119.27 432.36 119.13 422.29 118.66 412.21 117.9 402.13 116.9 392.06 115.71 381.98 114.41 371.9 113.09 361.83 111.82 351.75 110.7 341.67 109.77 331.59 109.12 321.52 108.77 311.44 108.75 301.36 109.06 291.29 109.69 281.21 110.58 271.13 111.69 261.06 112.94 250.98 114.27 240.9 121.02 224.06 136.16 214.13 145.85 211.23 155.51 208.5 165.12 205.89 174.66 203.32 184.11 200.72 193.45 198.02 202.67 195.15 211.74 192.06 220.67 188.69 229.43 185 238.02 180.95 246.44 176.52 254.69 171.69 262.76 166.48 270.68 160.88 278.44 154.91 286.07 148.61 293.58 142 300.99 135.15 308.33 128.1 315.63 120.9 322.9 113.62 330.19 106.31 337.52 99.03 344.92 91.85 352.43 84.82 360.08 77.98 367.9 71.37 380.02 62.02 384.13 59" stroke-dasharray="7 4" transform="rotate(52.35185185185185, 400, 400)" opacity="0.24"></path><path d="M384.78 66.32Q393.93 70.53 403.35 75.03 413.02 79.85 422.94 85 433.1 90.48 443.49 96.29 454.07 102.42 464.84 108.84 475.77 115.52 486.81 122.42 497.95 129.5 509.13 136.71 520.33 144 531.5 151.29 542.61 158.54 553.6 165.68 564.45 172.66 575.11 179.42 585.54 185.91 595.72 192.09 605.61 197.91 615.18 203.36 624.42 208.42 633.3 213.07 641.81 217.33 649.95 221.19 664.93 227.74 678.84 233.45 685.21 242.19 678.73 258.51 672.3 268.59 666.31 278.67 661.12 288.75 657.03 298.83 654.29 308.91 653.07 318.99 653.44 329.07 655.38 339.15 658.77 349.23 663.41 359.31 669.02 369.39 675.26 379.48 681.75 389.56 688.11 399.64 693.95 409.72 698.91 419.8 702.71 429.88 705.12 439.96 705.98 450.04 705.24 460.12 702.96 470.2 699.26 480.28 694.37 490.36 688.59 500.44 682.26 510.52 675.76 520.6 669.49 530.68 663.82 540.76 659.1 550.84 655.6 560.92 645.95 570.09 636.71 579.2 627.87 588.15 619.41 596.84 611.34 605.17 603.61 613.04 596.22 620.37 589.14 627.11 575.82 638.25 563.08 647.3 550.87 653.01 538.72 656.98 526.25 658.85 513.36 660.06 499.48 661.33 484.86 663.34 468.88 667.64 452.07 673.82 443.18 678.16 434.03 683.27 424.64 689.14 415.03 695.78 406.54 693.28 397.79 691.39 388.81 690.03 379.6 689.09 370.18 688.46 360.57 688.02 350.8 687.66 340.89 687.24 330.86 686.66 320.75 685.79 310.57 684.53 300.36 682.78 290.15 680.46 279.96 677.51 269.81 673.88 259.73 669.54 249.73 664.48 239.85 658.7 230.08 652.23 220.45 645.12 210.96 637.42 201.62 629.22 192.42 620.59 183.38 611.64 174.49 602.47 165.74 593.2 157.11 583.93 148.61 574.77 140.22 565.83 131.91 557.21 123.68 549 115.51 541.27 116.24 531.4 117.23 521.54 118.41 511.67 119.72 501.81 121.07 491.94 122.39 482.07 123.6 472.21 124.61 462.34 125.38 452.48 125.86 442.61 126.01 432.74 125.83 422.88 125.33 413.01 124.54 403.14 123.51 393.28 122.29 383.41 120.97 373.55 119.61 363.68 118.31 353.81 117.14 343.95 116.18 334.08 115.47 324.21 115.07 314.35 114.99 304.48 115.24 294.61 115.81 284.75 116.67 274.88 117.75 265.01 119 255.15 120.33 245.28 127.07 228.91 141.98 219.52 151.5 216.84 161.01 214.29 170.47 211.8 179.88 209.32 189.21 206.76 198.45 204.07 207.57 201.18 216.57 198.06 225.42 194.64 234.12 190.89 242.66 186.78 251.03 182.3 259.23 177.44 267.26 172.2 275.13 166.59 282.83 160.63 290.38 154.36 297.8 147.82 305.1 141.04 312.3 134.08 319.43 126.99 326.51 119.83 333.56 112.66 340.62 105.53 347.72 98.49 354.88 91.6 362.14 84.9 369.52 78.44 380.92 69.28 384.78 66.32" stroke-dasharray="5 3" transform="rotate(57.11111111111111, 400, 400)" opacity="0.26"></path><path d="M385.93 73.63Q395.21 77.73 404.73 82.11 414.48 86.8 424.45 91.81 434.62 97.13 444.98 102.78 455.5 108.74 466.15 114.98 476.91 121.49 487.74 128.21 498.62 135.12 509.5 142.17 520.34 149.3 531.12 156.46 541.8 163.6 552.33 170.65 562.69 177.56 572.83 184.28 582.73 190.76 592.36 196.95 601.7 202.82 610.72 208.33 619.41 213.47 627.75 218.23 643.22 226.4 657.65 233.49 673.46 246.54 670.14 263.85 664.02 273.73 658.41 283.61 653.64 293.49 649.98 303.37 647.64 313.25 646.76 323.12 647.39 333 649.49 342.88 652.94 352.76 657.54 362.64 663.03 372.52 669.09 382.4 675.38 392.28 681.53 402.16 687.18 412.03 692.03 421.91 695.78 431.79 698.22 441.67 699.21 451.55 698.7 461.43 696.71 471.31 693.36 481.19 688.83 491.07 683.4 500.95 677.37 510.82 671.09 520.7 664.91 530.58 659.21 540.46 654.29 550.34 650.45 560.22 640.76 569.11 631.45 577.88 622.52 586.43 613.95 594.67 605.75 602.5 597.9 609.86 590.38 616.67 583.17 622.88 569.65 633.05 556.78 641.24 544.6 646.33 532.6 649.85 520.51 651.54 508.14 652.72 495 654.1 481.24 656.26 466.28 660.67 450.55 666.89 442.23 671.2 433.65 676.23 424.83 681.99 415.78 688.47 407.13 686 398.25 684.12 389.16 682.73 379.87 681.76 370.4 681.08 360.77 680.61 351.02 680.22 341.16 679.8 331.21 679.24 321.21 678.43 311.19 677.27 301.16 675.67 291.15 673.56 281.19 670.86 271.29 667.53 261.49 663.53 251.79 658.85 242.2 653.49 232.75 647.47 223.44 640.81 214.27 633.58 205.25 625.82 196.38 617.63 187.66 609.07 179.08 600.26 170.63 591.28 162.3 582.24 154.09 573.24 145.97 564.39 137.93 555.77 129.96 547.49 122.04 539.61 122.89 529.95 123.97 520.3 125.22 510.64 126.58 500.98 127.96 491.32 129.28 481.66 130.47 472 131.47 462.34 132.2 452.68 132.64 443.03 132.75 433.37 132.54 423.71 132 414.05 131.18 404.39 130.11 394.73 128.87 385.07 127.52 375.42 126.14 365.76 124.81 356.1 123.6 346.44 122.59 336.78 121.83 327.12 121.37 317.46 121.23 307.81 121.43 298.15 121.94 288.49 122.74 278.83 123.79 269.17 125.02 259.51 126.37 249.86 133.07 233.94 147.73 225.04 157.08 222.55 166.42 220.14 175.73 217.75 185 215.32 194.21 212.78 203.33 210.08 212.36 207.17 221.27 204 230.05 200.52 238.69 196.71 247.18 192.55 255.5 188.02 263.66 183.12 271.65 177.86 279.48 172.25 287.14 166.31 294.64 160.08 301.99 153.59 309.21 146.9 316.31 140.03 323.31 133.06 330.23 126.03 337.09 118.99 343.93 112 350.77 105.12 357.63 98.37 364.55 91.82 371.56 85.49 382.3 76.53 385.93 73.63" stroke-dasharray="6 3" transform="rotate(61.87037037037037, 400, 400)" opacity="0.28"></path><path d="M387.55 80.96Q396.92 84.94 406.5 89.2 416.28 93.76 426.24 98.62 436.37 103.8 446.63 109.28 457.02 115.07 467.49 121.13 478.03 127.46 488.59 134.01 499.15 140.74 509.68 147.62 520.13 154.59 530.49 161.61 540.7 168.62 550.74 175.57 560.59 182.41 570.2 189.07 579.57 195.53 588.65 201.72 597.44 207.62 605.93 213.2 614.09 218.42 621.92 223.27 636.45 231.67 650.03 238.99 664.94 252.14 661.61 269.2 655.81 278.87 650.6 288.55 646.25 298.22 643.02 307.9 641.07 317.57 640.51 327.25 641.38 336.92 643.62 346.6 647.11 356.27 651.67 365.95 657.03 375.62 662.92 385.3 669 394.97 674.95 404.65 680.43 414.32 685.15 424 688.84 433.67 691.32 443.35 692.43 453.02 692.12 462.7 690.41 472.37 687.39 482.05 683.23 491.73 678.15 501.4 672.43 511.08 666.39 520.75 660.35 530.43 654.65 540.1 649.59 549.78 645.47 559.45 635.77 568.02 626.41 576.41 617.41 584.52 608.75 592.28 600.44 599.61 592.47 606.45 584.83 612.74 577.49 618.44 563.76 627.67 550.72 635.04 538.51 639.56 526.58 642.69 514.77 644.24 502.81 645.39 490.3 646.9 477.3 649.2 463.27 653.71 448.56 659.97 440.78 664.23 432.75 669.18 424.49 674.82 415.99 681.14 407.21 678.71 398.23 676.84 389.06 675.43 379.72 674.43 370.24 673.71 360.64 673.2 350.94 672.78 341.16 672.36 331.34 671.81 321.5 671.06 311.66 669.99 301.84 668.53 292.08 666.6 282.38 664.14 272.76 661.09 263.25 657.43 253.86 653.12 244.6 648.16 235.47 642.57 226.49 636.36 217.65 629.58 208.97 622.28 200.42 614.52 192.02 606.38 183.75 597.94 175.61 589.29 167.57 580.53 159.64 571.74 151.8 563.02 144.03 554.47 136.31 546.17 128.64 538.2 129.59 528.75 130.76 519.29 132.07 509.84 133.47 500.39 134.87 490.94 136.19 481.48 137.36 472.03 138.32 462.58 139.02 453.13 139.42 443.67 139.49 434.22 139.23 424.77 138.66 415.31 137.8 405.86 136.71 396.41 135.45 386.96 134.07 377.5 132.67 368.05 131.31 358.6 130.07 349.15 129.02 339.7 128.21 330.24 127.69 320.79 127.49 311.34 127.62 301.89 128.07 292.43 128.82 282.98 129.82 273.53 131.03 264.08 132.37 254.62 139.02 239.15 153.41 230.68 162.58 228.34 171.75 226.04 180.9 223.72 190.02 221.32 199.1 218.79 208.1 216.06 217.02 213.11 225.84 209.88 234.55 206.34 243.12 202.47 251.55 198.25 259.83 193.68 267.96 188.75 275.92 183.47 283.71 177.86 291.33 171.95 298.8 165.76 306.1 159.34 313.27 152.73 320.29 145.97 327.2 139.12 334.01 132.22 340.73 125.32 347.39 118.48 354.02 111.74 360.64 105.15 367.28 98.74 373.95 92.56 384.13 83.79 387.55 80.96" stroke-dasharray="9 8" transform="rotate(66.62962962962962, 400, 400)" opacity="0.30"></path><path d="M389.59 88.27Q399 92.14 408.58 96.28 418.33 100.71 428.23 105.43 438.24 110.45 448.36 115.78 458.55 121.39 468.79 127.28 479.04 133.43 489.29 139.79 499.49 146.35 509.62 153.05 519.65 159.87 529.54 166.74 539.27 173.61 548.81 180.45 558.13 187.2 567.21 193.81 576.04 200.22 584.59 206.41 592.85 212.33 600.81 217.95 615.66 228.01 629.61 236.99 642.14 244.22 653.94 250.48 659.21 259.08 653.15 274.51 647.7 283.98 642.88 293.45 638.97 302.91 636.14 312.38 634.56 321.85 634.31 331.32 635.4 340.79 637.77 350.26 641.29 359.73 645.8 369.2 651.04 378.67 656.75 388.14 662.63 397.61 668.37 407.08 673.68 416.55 678.27 426.02 681.91 435.49 684.4 444.95 685.63 454.42 685.52 463.89 684.07 473.36 681.38 482.83 677.56 492.3 672.83 501.77 667.44 511.24 661.65 520.71 655.78 530.18 650.13 539.65 644.99 549.11 640.63 558.58 630.95 566.78 621.57 574.75 612.52 582.4 603.8 589.67 595.41 596.49 587.34 602.8 579.58 608.58 572.13 613.78 558.18 622.12 544.95 628.72 532.65 632.73 520.73 635.5 509.1 636.94 497.45 638.1 485.46 639.72 473.1 642.17 459.91 646.78 446.12 653.06 438.85 657.27 431.35 662.14 415.21 669.55 397.74 669.57 388.53 668.15 379.19 667.11 369.74 666.36 360.2 665.81 350.6 665.37 340.96 664.93 331.3 664.4 321.65 663.69 312.03 662.71 302.46 661.37 292.97 659.62 283.56 657.37 274.25 654.59 265.06 651.23 255.99 647.28 247.06 642.71 238.27 637.53 229.63 631.76 221.13 625.43 212.77 618.59 204.56 611.27 196.47 603.56 188.51 595.52 180.67 587.22 172.93 578.76 165.28 570.22 157.71 561.69 150.2 553.25 142.73 544.99 135.3 536.99 136.35 527.75 137.6 518.5 138.97 509.25 140.4 500 141.8 490.76 143.11 481.51 144.26 472.26 145.18 463.01 145.84 453.77 146.19 444.52 146.22 435.27 145.92 426.02 145.31 416.78 144.43 407.53 143.32 398.28 142.03 389.03 140.63 379.79 139.21 370.54 137.82 361.29 136.55 352.04 135.46 342.8 134.6 333.55 134.02 324.3 133.76 315.05 133.82 305.81 134.21 296.56 134.89 287.31 135.84 278.06 137.01 268.81 138.33 259.57 144.91 244.5 159.03 236.41 168 234.2 176.99 231.98 185.98 229.7 194.95 227.31 203.88 224.76 212.75 221.99 221.56 218.99 230.28 215.69 238.9 212.09 247.4 208.16 255.77 203.89 264.01 199.27 272.09 194.31 280.02 189.02 287.79 183.42 295.39 177.54 302.83 171.41 310.11 165.06 317.24 158.54 324.22 151.89 331.06 145.15 337.78 138.39 344.4 131.64 350.94 124.94 357.41 118.36 363.83 111.91 383.13 94 389.59 88.27" stroke-dasharray="8 9" transform="rotate(71.38888888888889, 400, 400)" opacity="0.31"></path><path d="M391.98 95.59Q401.37 99.36 410.9 103.38 420.56 107.67 430.33 112.25 440.18 117.12 450.08 122.28 460.02 127.72 469.97 133.44 479.9 139.4 489.78 145.58 499.58 151.96 509.28 158.49 518.84 165.13 528.25 171.84 537.48 178.58 546.5 185.3 555.3 191.95 563.85 198.48 572.15 204.85 580.17 211.02 587.92 216.95 595.38 222.6 609.31 232.81 622.41 242 634.27 249.48 645.49 255.98 650.54 264.61 644.76 279.76 639.68 289.02 635.28 298.28 631.78 307.54 629.36 316.8 628.13 326.06 628.16 335.32 629.45 344.58 631.93 353.84 635.48 363.1 639.92 372.36 645.03 381.62 650.57 390.88 656.25 400.14 661.79 409.4 666.92 418.66 671.38 427.92 674.96 437.17 677.48 446.43 678.8 455.69 678.88 464.95 677.69 474.21 675.3 483.47 671.84 492.73 667.46 502 662.39 511.26 656.88 520.52 651.2 529.78 645.64 539.04 640.47 548.3 635.94 557.56 626.29 565.35 616.93 572.87 607.86 580.04 599.09 586.8 590.63 593.11 582.48 598.91 567.21 608.63 552.77 616.67 539.57 622.05 526.97 626.01 515.12 628.17 503.53 629.67 492.1 630.88 480.58 632.43 468.65 635.38 456.33 639.59 443.19 646.44 429.47 655.1 414.07 662.32 396.81 662.29 387.61 660.86 378.31 659.8 368.93 659.01 359.5 658.43 350.05 657.95 340.58 657.5 331.13 656.98 321.71 656.31 312.35 655.4 303.06 654.18 293.86 652.58 284.76 650.54 275.77 648.01 266.92 644.94 258.19 641.32 249.61 637.12 241.16 632.35 232.86 627.01 224.7 621.12 216.68 614.73 208.79 607.86 201.02 600.58 193.37 592.95 185.83 585.03 178.37 576.91 171 568.66 163.69 560.35 156.43 552.08 149.21 543.92 142.02 535.94 143.17 526.9 144.49 517.85 145.9 508.81 147.35 499.77 148.75 490.73 150.04 481.68 151.15 472.64 152.04 463.6 152.64 454.55 152.95 445.51 152.93 436.47 152.59 427.43 151.95 418.38 151.04 409.34 149.9 400.3 148.6 391.26 147.19 382.21 145.74 373.17 144.33 364.13 143.03 355.09 141.9 346.04 140.99 337 140.36 327.96 140.04 318.92 140.03 309.87 140.34 300.83 140.96 291.79 141.85 282.75 142.97 273.7 144.26 264.66 150.74 249.99 164.56 242.23 173.34 240.1 182.14 237.93 190.96 235.67 199.76 233.27 208.54 230.68 217.28 227.87 225.96 224.8 234.57 221.44 243.1 217.77 251.52 213.78 259.83 209.45 268.01 204.79 276.05 199.81 283.95 194.52 291.69 188.94 299.28 183.1 306.7 177.02 313.97 170.75 321.08 164.33 328.03 157.79 334.84 151.18 341.51 144.55 348.06 137.95 354.51 131.41 360.86 124.97 367.14 118.68 385.77 101.19 391.98 95.59" stroke-dasharray="5 5" transform="rotate(76.14814814814814, 400, 400)" opacity="0.33"></path><path d="M394.63 102.91Q403.95 106.56 413.37 110.46 422.88 114.62 432.46 119.06 442.08 123.78 451.72 128.78 461.36 134.05 470.97 139.59 480.52 145.37 489.99 151.37 499.36 157.56 508.6 163.9 517.68 170.38 526.6 176.93 535.31 183.52 543.82 190.11 552.09 196.65 560.12 203.1 567.9 209.41 575.42 215.55 582.67 221.47 589.66 227.14 602.73 237.47 615.06 246.86 626.3 254.58 637.01 261.35 641.9 270.04 636.48 284.91 631.77 293.96 627.78 303.01 624.7 312.06 622.66 321.1 621.77 330.15 622.07 339.2 623.54 348.25 626.11 357.3 629.67 366.35 634.04 375.39 639.03 384.44 644.38 393.49 649.87 402.54 655.21 411.59 660.17 420.63 664.51 429.68 668.02 438.73 670.55 447.78 671.96 456.83 672.2 465.88 671.26 474.92 669.17 483.97 666.04 493.02 662.01 502.07 657.28 511.12 652.06 520.16 646.6 529.21 641.16 538.26 636 547.31 631.35 556.35 621.78 563.71 612.45 570.76 603.39 577.43 594.61 583.68 586.11 589.48 577.89 594.78 562.45 603.56 547.82 610.78 534.42 615.54 521.65 619.03 509.72 620.97 498.14 622.37 478.41 625.11 464.21 628.19 452.36 632.95 440.12 639.25 427.08 648.35 413.5 659.19 404.54 656.88 395.48 655.03 386.33 653.59 377.12 652.5 367.87 651.68 358.6 651.06 349.33 650.56 340.08 650.09 330.88 649.58 321.73 648.94 312.65 648.09 303.67 646.98 294.79 645.52 286.02 643.67 277.38 641.36 268.87 638.57 260.5 635.27 252.26 631.42 244.17 627.04 236.22 622.11 228.4 616.66 220.71 610.71 213.14 604.29 205.69 597.45 198.35 590.24 191.09 582.73 183.92 574.97 176.82 567.04 169.77 559 162.76 550.94 155.78 542.93 148.81 535.03 150.05 526.19 151.43 517.35 152.88 508.52 154.33 499.68 155.73 490.84 156.99 482 158.06 473.16 158.9 464.32 159.46 455.49 159.71 446.65 159.64 437.81 159.27 428.97 158.59 420.13 157.66 411.29 156.5 402.46 155.18 393.62 153.75 384.78 152.29 375.94 150.86 367.1 149.53 358.26 148.36 349.43 147.42 340.59 146.73 331.75 146.34 322.91 146.26 314.07 146.5 305.23 147.04 296.39 147.86 287.56 148.92 278.72 150.18 269.88 156.54 255.59 170.04 248.09 178.62 246.02 187.23 243.88 195.85 241.61 204.48 239.18 213.1 236.54 221.69 233.67 230.24 230.53 238.73 227.1 247.15 223.36 255.48 219.31 263.71 214.93 271.83 210.24 279.83 205.25 287.69 199.96 295.41 194.4 302.98 188.6 310.39 182.59 317.65 176.41 324.75 170.08 331.69 163.66 338.48 157.19 345.13 150.7 351.65 144.24 358.04 137.86 370.45 125.53 382.64 113.72 391.64 105.55 394.63 102.91" stroke-dasharray="9 0" transform="rotate(80.9074074074074, 400, 400)" opacity="0.35"></path><path d="M397.46 110.23Q415.9 117.55 434.53 125.89 453.2 135.29 471.71 145.75 489.89 157.15 507.55 169.32 524.55 182 540.74 194.89 556.03 207.66 570.34 219.99 583.68 231.57 596.06 242.16 607.57 251.56 618.34 259.69 628.53 266.56 638.34 272.27 628.29 289.94 620.4 307.61 616.05 325.27 616.02 342.94 620.31 360.61 628.16 378.27 638.19 395.94 648.63 413.61 657.63 431.27 663.61 448.94 665.5 466.6 662.98 484.27 656.49 501.94 647.18 519.6 636.68 537.27 626.86 554.93 608.13 568.38 590.33 580.3 573.57 590.4 557.85 598.54 543.18 604.73 529.49 609.11 516.65 612.01 504.54 613.83 492.98 615.09 481.77 616.37 470.73 618.23 459.66 621.23 448.37 625.82 436.69 632.35 424.51 641.02 411.71 651.87 393.8 647.76 375.7 645.2 357.55 643.7 339.52 642.68 321.74 641.56 304.33 639.75 287.38 636.74 270.94 632.12 255.05 625.6 239.71 617.06 224.87 606.51 210.48 594.15 196.46 580.27 182.73 565.32 169.17 549.78 155.68 534.2 158.42 516.94 161.35 499.67 163.95 482.4 165.76 465.14 166.46 447.87 165.93 430.6 164.27 413.33 161.76 396.07 158.84 378.8 156.04 361.53 153.85 344.26 152.66 327 152.66 309.73 153.88 292.46 156.08 275.19 158.88 257.92 175.46 253.99 192.23 249.8 209.11 245.03 225.98 239.39 242.74 232.67 259.28 224.76 275.47 215.62 291.23 205.34 306.46 194.07 321.11 182.04 335.16 169.53 348.6 156.84 361.46 144.31 373.82 132.2 391.62 115.51 397.46 110.23" stroke-dasharray="0 5" transform="rotate(85.66666666666666, 400, 400)" opacity="0.37"></path><path d="M400.38 117.56Q418.4 124.65 436.47 132.71 454.44 141.8 472.14 151.91 489.41 162.94 506.11 174.74 522.1 187.06 537.28 199.64 551.58 212.18 564.96 224.36 577.45 235.9 589.09 246.55 599.97 256.11 610.24 264.48 620.05 271.62 629.61 277.6 620.22 294.83 613.13 312.05 609.53 329.28 610.02 346.51 614.52 363.74 622.28 380.97 632 398.19 642.05 415.42 650.76 432.65 656.66 449.88 658.77 467.11 656.74 484.34 650.9 501.56 642.24 518.79 632.2 536.02 622.45 553.25 603.94 565.72 586.25 576.63 569.48 585.77 553.69 593.05 538.87 598.53 525 602.39 511.99 604.93 499.74 606.59 488.09 607.83 476.89 609.18 465.97 611.18 455.14 614.3 444.23 618.96 433.08 625.46 421.55 633.98 409.53 644.54 391.84 640.49 374.09 637.91 356.41 636.35 338.94 635.29 321.8 634.18 305.09 632.51 288.86 629.77 273.16 625.59 257.99 619.66 243.34 611.85 229.16 602.14 215.39 590.65 201.95 577.64 188.73 563.46 175.66 548.56 162.62 533.41 165.46 516.56 168.39 499.7 170.92 482.85 172.62 465.99 173.21 449.13 172.59 432.28 170.87 415.42 168.33 398.57 165.4 381.71 162.57 364.86 160.31 348 158.99 331.15 158.85 314.29 159.9 297.44 161.97 280.58 164.71 263.73 180.83 259.89 197.17 255.68 213.64 250.81 230.16 245.02 246.61 238.15 262.9 230.12 278.91 220.93 294.54 210.67 309.71 199.5 324.34 187.64 338.39 175.37 351.85 162.98 364.71 150.75 377.04 138.96 394.64 122.7 400.38 117.56" stroke-dasharray="5 9" transform="rotate(90.42592592592592, 400, 400)" opacity="0.38"></path><path d="M403.29 124.87Q420.76 131.74 438.18 139.53 455.37 148.31 472.21 158.07 488.54 168.73 504.25 180.14 519.24 192.1 533.44 204.35 546.8 216.63 559.31 228.65 571.01 240.12 581.98 250.8 592.3 260.5 602.13 269.08 611.62 276.49 620.97 282.75 612.27 299.53 605.97 316.32 603.09 333.1 604.06 349.89 608.74 366.67 616.39 383.46 625.8 400.24 635.47 417.03 643.89 433.81 649.7 450.59 652.01 467.38 650.43 484.16 645.23 500.95 637.22 517.73 627.67 534.51 618.1 551.3 599.86 562.78 582.33 572.7 565.62 580.91 549.79 587.38 534.88 592.21 520.86 595.59 507.68 597.84 495.28 599.36 483.52 600.6 472.28 602.05 461.4 604.17 450.73 607.4 440.1 612.12 429.37 618.58 418.38 626.95 407.03 637.23 389.68 633.24 372.37 630.64 355.25 629.02 338.42 627.91 321.97 626.82 305.99 625.26 290.5 622.77 275.54 618.99 261.1 613.62 247.13 606.51 233.6 597.6 220.43 586.98 207.54 574.84 194.84 561.48 182.23 547.26 169.62 532.63 172.54 516.19 175.45 499.75 177.88 483.31 179.47 466.86 179.95 450.42 179.25 433.98 177.47 417.54 174.91 401.1 171.97 384.66 169.11 368.21 166.78 351.77 165.35 335.33 165.05 318.89 165.93 302.45 167.85 286 170.5 269.56 186.15 265.77 202.04 261.5 218.09 256.49 234.23 250.54 250.35 243.53 266.36 235.39 282.16 226.16 297.64 215.93 312.72 204.87 327.31 193.21 341.36 181.19 354.84 169.09 367.74 157.18 380.08 145.71 397.59 129.88 403.29 124.87" stroke-dasharray="9 5" transform="rotate(95.18518518518518, 400, 400)" opacity="0.40"></path><path d="M406.08 132.19Q422.93 138.83 439.59 146.36 455.95 154.83 471.87 164.24 487.25 174.52 501.98 185.55 515.99 197.13 529.24 209.05 541.7 221.05 553.41 232.87 564.39 244.24 574.75 254.92 584.58 264.72 594.03 273.5 603.25 281.16 612.42 287.71 604.44 304.04 598.94 320.37 596.73 336.71 598.15 353.04 602.98 369.37 610.5 385.71 619.59 402.04 628.89 418.37 637.01 434.71 642.74 451.04 645.22 467.37 644.08 483.71 639.49 500.04 632.13 516.37 623.11 532.71 613.78 549.04 595.87 559.53 578.56 568.48 561.96 575.81 546.15 581.53 531.18 585.76 517.05 588.72 503.73 590.72 491.17 592.14 479.29 593.4 467.96 594.94 457.08 597.18 446.49 600.53 436.05 605.29 425.63 611.71 415.09 619.91 404.29 629.91 387.38 625.98 370.62 623.37 354.13 621.7 337.99 620.54 322.28 619.46 307.06 617.99 292.33 615.73 278.12 612.31 264.38 607.47 251.1 601.02 238.2 592.88 225.61 583.11 213.25 571.84 201.04 559.31 188.88 545.84 176.69 531.8 179.66 515.78 182.52 499.75 184.86 483.73 186.31 467.7 186.68 451.68 185.89 435.65 184.07 419.63 181.49 403.6 178.54 387.58 175.65 371.55 173.26 355.53 171.73 339.5 171.28 323.48 171.98 307.46 173.73 291.43 176.26 275.41 191.44 271.6 206.86 267.23 222.47 262.07 238.2 255.96 253.97 248.8 269.67 240.57 285.22 231.31 300.52 221.14 315.47 210.22 330 198.76 344.05 187 357.56 175.2 370.5 163.61 382.88 152.46 400.41 137.07 406.08 132.19" stroke-dasharray="1 2" transform="rotate(99.94444444444444, 400, 400)" opacity="0.42"></path><path d="M408.67 139.51Q424.8 145.93 440.65 153.19 456.12 161.35 471.1 170.42 485.51 180.32 499.28 190.96 512.34 202.16 524.69 213.73 536.33 225.43 547.29 237.03 557.63 248.26 567.44 258.92 576.84 268.79 585.96 277.72 594.96 285.63 603.99 292.46 596.76 308.33 592.02 324.21 590.45 340.08 592.27 355.96 597.22 371.83 604.6 387.71 613.38 403.58 622.31 419.46 630.14 435.33 635.77 451.21 638.4 467.08 637.66 482.96 633.66 498.84 626.96 514.71 618.5 530.59 609.48 546.46 591.94 555.97 574.91 563.99 558.48 570.49 542.75 575.51 527.78 579.21 513.57 581.8 500.14 583.59 487.45 584.94 475.43 586.23 464 587.87 453.06 590.24 442.49 593.68 432.17 598.48 421.97 604.84 411.76 612.88 401.42 622.59 385.05 618.74 368.91 616.11 353.12 614.39 337.72 613.19 322.78 612.1 308.33 610.72 294.37 608.65 280.89 605.58 267.86 601.21 255.24 595.38 242.94 587.99 230.92 579.04 219.07 568.63 207.33 556.95 195.61 544.27 183.82 530.89 186.81 515.29 189.61 499.68 191.83 484.08 193.15 468.48 193.4 452.87 192.53 437.27 190.66 421.66 188.07 406.06 185.12 390.46 182.21 374.85 179.77 359.25 178.13 343.65 177.53 328.04 178.05 312.44 179.62 296.84 182.01 281.23 196.69 277.37 211.63 272.86 226.78 267.53 242.08 261.26 257.46 253.96 272.83 245.66 288.1 236.39 303.18 226.29 317.98 215.51 332.42 204.27 346.43 192.79 359.95 181.3 372.94 170.03 385.38 159.2 402.98 144.25 408.67 139.51" stroke-dasharray="8 10" transform="rotate(104.7037037037037, 400, 400)" opacity="0.44"></path><path d="M410.98 146.83Q426.3 153.03 441.29 160.03 455.85 167.88 469.88 176.6 483.34 186.13 496.16 196.37 508.33 207.19 519.84 218.39 530.71 229.78 540.99 241.13 550.75 252.2 560.09 262.79 569.11 272.7 577.96 281.77 586.76 289.89 595.68 296.99 589.2 312.4 585.22 327.81 584.26 343.22 586.44 358.63 591.48 374.04 598.71 389.45 607.17 404.86 615.74 420.27 623.28 435.68 628.8 451.08 631.56 466.49 631.2 481.9 627.76 497.31 621.7 512.72 613.83 528.13 605.18 543.54 588.07 552.08 571.36 559.22 555.16 564.94 539.57 569.33 524.64 572.55 510.41 574.82 496.9 576.45 484.1 577.75 471.95 579.1 460.41 580.84 449.39 583.33 438.79 586.86 428.52 591.68 418.46 597.98 408.48 605.84 398.49 615.27 382.75 611.48 367.32 608.86 352.27 607.09 337.66 605.85 323.51 604.75 309.84 603.44 296.64 601.55 283.89 598.77 271.54 594.86 259.55 589.6 247.85 582.91 236.35 574.76 225 565.2 213.71 554.37 202.4 542.5 191.02 529.85 193.99 514.67 196.71 499.49 198.79 484.32 199.98 469.14 200.1 453.97 199.15 438.79 197.25 423.61 194.65 408.44 191.7 393.26 188.78 378.08 186.29 362.91 184.56 347.73 183.81 332.55 184.14 317.37 185.51 302.2 187.74 287.02 201.92 283.05 216.36 278.38 231.04 272.88 245.89 266.44 260.85 259.02 275.84 250.65 290.8 241.4 305.62 231.39 320.23 220.78 334.54 209.77 348.48 198.57 361.99 187.39 375.02 176.46 387.53 165.95 405.25 151.43 410.98 146.83" stroke-dasharray="5 9" transform="rotate(109.46296296296296, 400, 400)" opacity="0.45"></path><path d="M412.91 154.15Q427.39 160.12 441.48 166.86 455.11 174.41 468.2 182.78 480.73 191.94 492.66 201.79 503.98 212.21 514.7 223.04 524.87 234.09 534.55 245.17 543.8 256.05 552.72 266.54 561.43 276.45 570.04 285.61 578.69 293.91 587.52 301.27 581.8 316.21 578.54 331.15 578.13 346.08 580.64 361.02 585.74 375.96 592.8 390.9 600.94 405.83 609.15 420.77 616.41 435.71 621.82 450.65 624.69 465.59 624.67 480.52 621.77 495.46 616.35 510.4 609.08 525.34 600.86 540.28 584.22 547.9 567.88 554.19 551.97 559.2 536.57 563.01 521.74 565.81 507.55 567.82 494.01 569.31 481.12 570.6 468.87 572.01 457.22 573.86 446.1 576.45 435.45 580.06 425.17 584.91 415.18 591.13 405.36 598.81 395.62 607.95 380.59 604.24 365.91 601.62 351.66 599.81 337.85 598.52 324.5 597.42 311.61 596.16 299.16 594.42 287.11 591.92 275.43 588.41 264.04 583.7 252.9 577.67 241.92 570.27 231.04 561.54 220.18 551.57 209.27 540.54 198.26 528.64 201.2 513.9 203.81 499.15 205.75 484.41 206.79 469.66 206.8 454.92 205.77 440.17 203.83 425.42 201.23 410.68 198.29 395.93 195.37 381.19 192.84 366.44 191.01 351.7 190.11 336.95 190.26 322.21 191.43 307.46 193.47 292.72 207.14 288.6 221.07 283.76 235.25 278.07 249.62 271.48 264.14 263.96 278.74 255.55 293.34 246.33 307.86 236.43 322.24 226 336.38 215.24 350.22 204.33 363.68 193.47 376.72 182.87 389.29 172.69 407.13 158.61 412.91 154.15" stroke-dasharray="3 5" transform="rotate(114.22222222222221, 400, 400)" opacity="0.47"></path><path d="M414.41 161.47Q428.01 167.22 441.19 173.7 453.89 180.95 466.07 188.98 477.7 197.76 488.78 207.21 499.32 217.23 509.33 227.68 518.87 238.38 528.01 249.16 536.81 259.82 545.38 270.18 553.82 280.04 562.24 289.27 570.76 297.72 579.5 305.3 574.54 319.76 571.97 334.23 572.08 348.69 574.87 363.15 580 377.61 586.89 392.07 594.72 406.53 602.58 420.99 609.55 435.45 614.83 449.91 617.8 464.37 618.1 478.83 615.71 493.29 610.9 507.75 604.24 522.21 596.5 536.66 580.36 543.4 564.46 548.92 548.88 553.27 533.73 556.57 519.07 559 504.96 560.79 491.43 562.18 478.51 563.47 466.19 564.95 454.44 566.91 443.23 569.61 432.5 573.29 422.18 578.14 412.2 584.28 402.46 591.78 392.89 600.63 378.63 597 364.76 594.38 351.32 592.54 338.32 591.21 325.77 590.09 313.65 588.87 301.93 587.27 290.57 585.02 279.51 581.88 268.71 577.67 258.1 572.26 247.61 565.59 237.17 557.66 226.72 548.53 216.19 538.34 205.54 527.24 208.43 512.94 210.91 498.63 212.7 484.32 213.59 470.01 213.48 455.7 212.38 441.39 210.41 427.09 207.81 412.78 204.88 398.47 201.96 384.16 199.4 369.85 197.49 355.54 196.45 341.23 196.41 326.92 197.36 312.61 199.21 298.3 212.35 294.02 225.77 288.99 239.43 283.13 253.31 276.39 267.36 268.78 281.52 260.35 295.73 251.19 309.92 241.42 324.01 231.19 337.94 220.68 351.63 210.07 365.01 199.55 378.03 189.28 390.62 179.43 408.59 165.8 414.41 161.47" stroke-dasharray="1 2" transform="rotate(118.98148148148148, 400, 400)" opacity="0.49"></path><path d="M415.44 168.78Q428.14 174.32 440.4 180.54 452.2 187.49 463.5 195.18 474.29 203.58 484.58 212.64 494.39 222.26 503.76 232.31 512.74 242.65 521.4 253.11 529.82 263.52 538.09 273.7 546.3 283.49 554.56 292.73 562.98 301.29 571.66 309.08 567.44 323.05 565.52 337.03 566.1 351.01 569.13 364.99 574.27 378.96 580.97 392.94 588.48 406.92 596 420.89 602.69 434.87 607.84 448.85 610.88 462.82 611.48 476.8 609.56 490.78 605.35 504.75 599.3 518.73 592.08 532.7 576.49 538.61 561.05 543.41 545.86 547.16 531.01 550.01 516.58 552.14 502.61 553.74 489.16 555.07 476.25 556.39 463.89 557.95 452.07 560.02 440.78 562.82 429.97 566.55 419.59 571.39 409.58 577.44 399.88 584.75 390.4 593.32 376.95 589.76 363.92 587.16 351.31 585.29 339.13 583.92 327.36 582.78 315.98 581.6 304.96 580.11 294.25 578.07 283.8 575.27 273.55 571.51 263.44 566.68 253.41 560.7 243.39 553.54 233.33 545.24 223.17 535.88 212.87 525.61 215.67 511.75 218.01 497.88 219.64 484.01 220.38 470.15 220.15 456.28 218.98 442.42 216.98 428.55 214.39 414.68 211.48 400.82 208.57 386.95 205.98 373.09 203.99 359.22 202.82 345.35 202.59 331.49 203.33 317.62 204.97 303.75 217.58 299.28 230.46 294.06 243.6 288.02 256.96 281.16 270.52 273.48 284.21 265.06 298 255.97 311.81 246.35 325.58 236.34 339.25 226.11 352.74 215.81 365.98 205.61 378.93 195.68 391.51 186.16 409.56 172.97 415.44 168.78" stroke-dasharray="8 12" transform="rotate(123.74074074074073, 400, 400)" opacity="0.51"></path><path d="M415.94 176.11Q427.75 181.43 439.12 187.39 450.05 194.05 460.51 201.4 470.52 209.43 480.09 218.08 489.25 227.29 498.04 236.94 506.53 246.9 514.78 257.03 522.87 267.16 530.88 277.14 538.9 286.81 547.03 296.03 555.36 304.66 563.97 312.6 560.48 326.08 559.17 339.57 560.19 353.06 563.43 366.54 568.55 380.03 575.04 393.52 582.24 407 589.42 420.49 595.84 433.98 600.85 447.47 603.94 460.95 604.8 474.44 603.34 487.93 599.71 501.41 594.27 514.9 587.59 528.39 572.58 533.53 557.65 537.66 542.9 540.9 528.4 543.36 514.25 545.22 500.48 546.69 487.16 547.99 474.31 549.34 461.97 550.99 450.12 553.16 438.77 556.05 427.88 559.83 417.44 564.65 407.39 570.6 397.67 577.72 388.23 585.99 375.63 582.52 363.44 579.93 351.66 578.04 340.27 576.64 329.27 575.47 318.61 574.32 308.26 572.93 298.17 571.09 288.29 568.58 278.56 565.24 268.92 560.95 259.32 555.6 249.7 549.18 240.01 541.67 230.2 533.15 220.23 523.71 222.92 510.29 225.1 496.87 226.56 483.46 227.15 470.04 226.81 456.62 225.56 443.21 223.55 429.79 220.97 416.38 218.08 402.96 215.19 389.54 212.58 376.13 210.52 362.71 209.22 349.29 208.81 335.88 209.34 322.46 210.74 309.05 222.82 304.37 235.16 298.96 247.76 292.76 260.59 285.79 273.63 278.07 286.84 269.67 300.16 260.69 313.56 251.24 326.96 241.47 340.31 231.51 353.55 221.53 366.61 211.68 379.43 202.09 391.96 192.9 410.04 180.16 415.94 176.11" stroke-dasharray="11 9" transform="rotate(128.5, 400, 400)" opacity="0.53"></path><path d="M415.91 183.43Q426.84 188.54 437.36 194.25 447.46 200.6 457.15 207.62 466.44 215.28 475.35 223.54 483.93 232.34 492.22 241.57 500.28 251.14 508.18 260.91 515.99 270.74 523.78 280.48 531.65 289.99 539.66 299.14 547.91 307.79 556.48 315.85 553.68 328.84 552.94 341.84 554.34 354.83 557.74 367.83 562.83 380.82 569.11 393.81 576 406.81 582.84 419.8 588.98 432.8 593.85 445.79 596.98 458.79 598.08 471.78 597.03 484.77 593.95 497.77 589.12 510.76 583.01 523.75 568.6 528.18 554.21 531.73 539.94 534.5 525.86 536.63 512.04 538.29 498.53 539.65 485.4 540.94 472.68 542.35 460.39 544.09 448.56 546.35 437.18 549.32 426.25 553.14 415.75 557.93 405.64 563.77 395.89 570.68 386.45 578.67 374.71 575.28 363.36 572.72 352.39 570.81 341.78 569.37 331.51 568.19 321.54 567.05 311.82 565.75 302.31 564.07 292.96 561.83 283.71 558.87 274.51 555.07 265.32 550.32 256.07 544.59 246.73 537.85 237.26 530.14 227.62 521.53 230.17 508.57 232.18 495.61 233.47 482.65 233.9 469.68 233.45 456.72 232.14 443.76 230.11 430.8 227.55 417.84 224.7 404.88 221.82 391.92 219.2 378.95 217.08 365.99 215.66 353.03 215.08 340.07 215.38 327.11 216.55 314.14 228.09 309.27 239.88 303.67 251.93 297.33 264.22 290.28 276.72 282.54 289.41 274.19 302.25 265.34 315.19 256.08 328.18 246.56 341.17 236.9 354.1 227.24 366.92 217.73 379.56 208.49 391.97 199.63 410.01 187.34 415.91 183.43" stroke-dasharray="6 9" transform="rotate(133.25925925925924, 400, 400)" opacity="0.54"></path><path d="M415.35 190.74Q425.44 195.64 435.15 201.1 444.49 207.16 453.46 213.85 462.1 221.14 470.43 229 478.5 237.39 486.35 246.21 494.04 255.37 501.64 264.77 509.22 274.27 516.83 283.74 524.56 293.06 532.48 302.09 540.66 310.72 549.16 318.84 547.02 331.34 546.81 343.84 548.55 356.33 552.09 368.83 557.11 381.33 563.17 393.83 569.75 406.33 576.26 418.82 582.13 431.32 586.85 443.82 590 456.32 591.31 468.81 590.65 481.31 588.09 493.81 583.86 506.3 578.32 518.8 564.53 522.59 550.73 525.62 536.98 527.99 523.35 529.84 509.91 531.34 496.73 532.64 483.84 533.93 471.3 535.41 459.13 537.24 447.37 539.6 436.01 542.64 425.07 546.48 414.53 551.23 404.38 556.95 394.59 563.66 385.13 571.35 374.24 568.06 363.71 565.52 353.53 563.6 343.66 562.13 334.08 560.93 324.75 559.8 315.62 558.56 306.65 557.02 297.8 555.02 289 552.4 280.21 549.04 271.4 544.85 262.5 539.77 253.5 533.76 244.34 526.83 235.02 519.04 237.41 506.54 239.25 494.04 240.35 481.54 240.64 469.04 240.07 456.54 238.71 444.04 236.67 431.54 234.13 419.04 231.31 406.54 228.47 394.04 225.84 381.53 223.67 369.03 222.14 356.53 221.39 344.03 221.48 331.53 222.41 319.03 233.4 313.95 244.64 308.18 256.13 301.73 267.86 294.61 279.81 286.89 291.96 278.63 304.28 269.92 316.73 260.87 329.27 251.61 341.85 242.26 354.42 232.94 366.94 223.78 379.34 214.88 391.58 206.36 409.48 194.52 415.35 190.74" stroke-dasharray="1 4" transform="rotate(138.01851851851853, 400, 400)" opacity="0.56"></path><path d="M414.28 198.07Q423.58 202.75 432.54 207.96 441.17 213.74 449.5 220.09 457.56 227.02 465.38 234.49 473 242.46 480.47 250.86 487.86 259.61 495.2 268.62 502.58 277.76 510.04 286.94 517.66 296.02 525.49 304.9 533.6 313.46 542.03 321.59 540.51 333.59 540.78 345.59 542.82 357.58 546.45 369.58 551.38 381.58 557.22 393.57 563.49 405.57 569.68 417.57 575.28 429.56 579.85 441.56 583 453.56 584.49 465.55 584.19 477.55 582.13 489.55 578.47 501.55 573.52 513.54 560.38 516.76 547.17 519.34 533.98 521.38 520.85 523.01 507.84 524.38 495.03 525.65 482.45 526.97 470.15 528.51 458.16 530.44 446.52 532.88 435.24 535.98 424.33 539.84 413.79 544.54 403.61 550.12 393.79 556.63 384.3 564.03 374.24 560.83 364.5 558.32 355.07 556.4 345.9 554.9 336.97 553.67 328.24 552.55 311.22 549.76 294.41 545.84 286 542.89 277.54 539.2 268.98 534.71 260.29 529.39 251.45 523.22 242.43 516.23 244.65 504.19 246.29 492.16 247.21 480.13 247.35 468.09 246.68 456.06 245.26 444.03 243.22 431.99 240.71 419.96 237.93 407.92 235.12 395.89 232.5 383.86 230.29 371.82 228.66 359.79 227.75 347.76 227.63 335.72 228.31 323.69 238.76 318.42 249.45 312.51 260.38 305.96 271.54 298.82 282.92 291.13 294.51 282.97 306.29 274.44 318.21 265.63 330.26 256.65 342.39 247.61 354.55 238.63 366.7 229.82 378.8 221.28 390.8 213.09 408.46 201.7 414.28 198.07" stroke-dasharray="7 8" transform="rotate(142.77777777777777, 400, 400)" opacity="0.58"></path><path d="M412.73 205.38Q421.29 209.85 429.57 214.82 437.57 220.31 445.33 226.34 452.88 232.9 460.25 239.99 467.49 247.54 474.65 255.52 481.77 263.85 488.9 272.45 496.11 281.23 503.45 290.07 510.96 298.89 518.71 307.57 526.73 316 535.09 324.1 534.15 335.6 534.85 347.09 537.13 358.59 540.83 370.08 545.66 381.58 551.27 393.07 557.23 404.57 563.1 416.06 568.44 427.56 572.84 439.05 575.98 450.55 577.63 462.04 577.65 473.54 576.05 485.03 572.95 496.53 568.58 508.02 556.1 510.74 543.52 512.93 530.91 514.7 518.31 516.15 505.79 517.44 493.4 518.7 481.18 520.07 469.18 521.69 457.43 523.7 445.97 526.23 434.82 529.37 423.99 533.23 413.5 537.86 403.34 543.31 393.51 549.6 384 556.72 374.73 553.61 365.75 551.14 348.59 547.83 331.98 545.33 315.91 542.72 299.91 539.2 291.87 536.61 283.73 533.38 275.49 529.45 267.1 524.77 258.56 519.31 249.83 513.09 251.86 501.53 253.3 489.97 254.04 478.41 254.03 466.85 253.27 455.28 251.81 443.72 249.76 432.16 247.29 420.6 244.56 409.04 241.79 397.47 239.19 385.91 236.94 374.35 235.22 362.79 234.16 351.23 233.84 339.66 234.27 328.1 244.19 322.66 254.32 316.63 264.68 310.02 275.27 302.87 286.08 295.26 297.09 287.23 308.3 278.9 319.68 270.34 331.19 261.65 342.82 252.94 354.53 244.31 366.27 235.86 378 227.66 389.69 219.81 407 208.87 412.73 205.38" stroke-dasharray="10 8" transform="rotate(147.53703703703704, 400, 400)" opacity="0.60"></path><path d="M410.75 212.71Q418.65 216.97 426.31 221.69 433.76 226.89 441.02 232.6 448.13 238.81 455.12 245.5 462.04 252.65 468.92 260.2 475.82 268.1 482.78 276.28 489.84 284.67 497.06 293.16 504.48 301.67 512.14 310.11 520.08 318.38 528.33 326.39 527.93 337.38 529.01 348.37 531.5 359.36 535.22 370.35 539.94 381.34 545.3 392.34 550.96 403.33 556.52 414.32 561.59 425.31 565.83 436.3 568.95 447.3 570.72 458.29 571.04 469.28 569.87 480.27 567.3 491.26 563.5 502.26 551.69 504.55 539.75 506.42 527.74 507.97 515.71 509.3 503.71 510.54 491.79 511.8 479.99 513.23 468.34 514.93 456.9 517.03 445.68 519.62 434.72 522.8 424.03 526.64 413.63 531.2 403.53 536.51 393.73 542.57 384.23 549.39 367.52 544.21 351.42 540.51 335.99 538.12 320.74 535.78 305.46 532.27 289.96 527.41 282.01 523.98 273.92 519.89 265.66 515.11 257.22 509.62 259.05 498.53 260.29 487.44 260.85 476.36 260.7 465.27 259.84 454.19 258.34 443.1 256.3 432.02 253.86 420.93 251.19 409.85 248.47 398.76 245.89 387.67 243.62 376.59 241.83 365.5 240.63 354.42 240.11 343.34 240.31 332.25 249.68 326.67 259.26 320.54 269.06 313.9 279.07 306.79 289.29 299.27 299.72 291.41 310.35 283.3 321.15 275 332.11 266.63 343.21 258.26 354.41 249.98 365.68 241.89 376.99 234.05 388.29 226.54 405.16 216.06 410.75 212.71" stroke-dasharray="7 12" transform="rotate(152.29629629629628, 400, 400)" opacity="0.61"></path><path d="M408.42 220.02Q422.76 228.78 436.63 238.87 443.36 244.73 450.03 251.04 456.68 257.77 463.33 264.9 470.04 272.37 476.85 280.13 483.78 288.1 490.89 296.22 498.21 304.39 505.78 312.55 513.62 320.6 521.77 328.47 521.84 338.96 523.25 349.45 525.9 359.93 529.63 370.42 534.21 380.91 539.33 391.4 544.69 401.88 549.94 412.37 554.75 422.86 558.83 433.35 561.9 443.84 563.78 454.33 564.35 464.81 563.58 475.3 561.51 485.79 558.27 496.28 547.13 498.22 535.85 499.83 524.47 501.21 513.03 502.45 501.59 503.67 490.17 504.97 478.83 506.46 467.6 508.24 456.51 510.41 445.59 513.06 434.88 516.26 424.39 520.08 414.15 524.55 404.16 529.71 394.44 535.55 384.99 542.08 369.59 537.03 354.64 533.34 340.14 530.95 325.71 528.68 311.09 525.54 296.2 521.29 288.54 518.32 280.72 514.77 269.47 502.9 267.23 484.59 267.62 473.99 267.34 463.38 266.4 452.78 264.87 442.17 262.84 431.57 260.44 420.96 257.83 410.36 255.16 399.76 252.61 389.15 250.33 378.55 248.47 367.94 247.15 357.34 246.45 346.74 246.41 336.13 255.26 330.44 264.29 324.25 273.52 317.61 282.95 310.57 292.59 303.19 302.43 295.52 312.46 287.64 322.67 279.64 333.05 271.59 343.58 263.56 354.23 255.65 364.99 247.91 375.82 240.43 386.69 233.25 403 223.23 408.42 220.02" stroke-dasharray="2 0" transform="rotate(157.05555555555557, 400, 400)" opacity="0.63"></path><path d="M405.8 227.34Q419.18 235.64 432.24 245.16 438.65 250.67 445.05 256.6 451.46 262.93 457.93 269.63 464.47 276.67 471.14 283.99 477.96 291.55 484.97 299.26 492.18 307.08 499.64 314.92 507.37 322.71 515.38 330.39 515.89 340.37 517.58 350.35 520.35 360.34 524.06 370.32 528.48 380.3 533.35 390.29 538.41 400.27 543.36 410.25 547.92 420.23 551.82 430.22 554.84 440.2 556.8 450.18 557.6 460.17 557.18 470.15 549 485.95 531.79 493.18 521.06 494.43 510.24 495.62 499.38 496.85 488.51 498.19 477.67 499.75 466.89 501.61 456.22 503.85 445.66 506.55 435.26 509.76 425.04 513.54 415.01 517.91 405.19 522.9 387.33 530.24 371.98 529.63 358.15 526.32 344.46 523.76 330.73 521.52 316.81 518.91 302.36 514.81 287.5 509.4 276.56 498.66 274.14 481.41 274.36 471.29 273.95 461.17 272.93 451.05 271.38 440.94 269.37 430.82 267.02 420.7 264.47 410.58 261.87 400.46 259.35 390.35 257.08 380.23 255.17 370.11 253.74 359.99 252.87 349.87 252.61 339.76 260.93 333.98 269.42 327.77 278.09 321.18 286.94 314.24 295.99 307.01 305.23 299.56 314.66 291.95 324.26 284.25 334.04 276.53 343.98 268.86 354.06 261.31 364.26 253.94 374.56 246.82 384.94 239.98 400.58 230.41 405.8 227.34" stroke-dasharray="6 2" transform="rotate(161.8148148148148, 400, 400)" opacity="0.65"></path><path d="M402.99 234.66Q415.55 242.5 427.92 251.46 440.25 262.37 452.74 274.39 459.15 280.99 465.69 287.88 472.39 295 479.29 302.3 486.39 309.72 493.73 317.21 501.32 324.71 509.17 332.13 510.05 341.61 511.97 351.09 514.83 360.57 518.48 370.05 522.73 379.53 527.36 389.01 532.13 398.49 536.78 407.97 541.08 417.45 544.81 426.93 547.76 436.41 549.78 445.89 550.77 455.37 550.68 464.85 543.52 479.79 527.57 486.5 517.48 487.68 507.3 488.85 497.04 490.1 486.75 491.5 476.45 493.13 466.18 495.06 455.96 497.36 445.83 500.09 435.8 503.3 425.9 507.02 416.15 511.29 406.57 516.12 389.25 523.12 374.77 522.48 361.83 519.18 348.92 516.61 335.82 514.45 322.48 512.05 308.57 508.48 294.24 503.83 283.6 494.14 281.01 477.9 281.06 468.27 280.53 458.64 279.45 449.01 277.88 439.38 275.89 429.76 273.6 420.13 271.12 410.5 268.58 400.87 266.11 391.24 263.85 381.61 261.9 371.98 260.38 362.35 263.02 345 274.65 331.09 282.76 324.57 291.05 317.77 299.52 310.74 308.16 303.53 316.98 296.21 325.98 288.83 335.14 281.46 344.47 274.15 353.95 266.97 363.56 259.97 373.29 253.19 383.12 246.7 398.01 237.58 402.99 234.66" stroke-dasharray="8 9" transform="rotate(166.57407407407408, 400, 400)" opacity="0.67"></path><path d="M400.08 241.98Q411.93 249.37 423.73 257.78 435.66 267.97 447.82 279.19 454.09 285.35 460.5 291.79 467.09 298.47 473.86 305.34 480.84 312.36 488.03 319.47 495.46 326.62 503.14 333.76 504.34 342.74 506.44 351.72 509.35 360.69 512.92 369.67 516.99 378.65 521.36 387.63 525.84 396.61 530.2 405.59 534.25 414.57 537.8 423.54 540.67 432.52 542.73 441.5 543.89 450.48 544.08 459.46 537.89 473.55 523.17 479.83 513.74 480.97 504.19 482.14 494.56 483.43 484.87 484.89 475.15 486.59 465.41 488.59 455.7 490.94 446.03 493.69 436.43 496.87 426.91 500.53 417.5 504.68 408.22 509.32 391.51 516 377.84 515.34 365.68 512.07 353.45 509.49 340.93 507.39 328.13 505.16 314.74 502.04 300.93 498.05 290.59 489.33 287.83 474.1 287.72 464.96 287.08 455.82 285.95 446.68 284.37 437.55 282.41 428.41 280.18 419.27 277.78 410.13 275.31 400.99 272.9 391.86 270.66 382.72 268.69 373.58 267.09 364.44 269.25 347.82 279.99 334.22 287.57 327.83 295.29 321.2 303.18 314.39 311.23 307.45 319.45 300.43 327.83 293.39 336.38 286.37 345.08 279.43 353.94 272.62 362.94 265.99 372.07 259.58 381.31 253.42 395.37 244.76 400.08 241.98" stroke-dasharray="4 2" transform="rotate(171.33333333333331, 400, 400)" opacity="0.68"></path><path d="M397.17 249.31Q408.42 256.09 419.74 264.11 431.27 273.43 443.17 284.02 455.6 295.76 468.69 308.41 482.55 321.71 497.26 335.29 500.97 352.25 507.36 369.2 515.35 386.16 523.63 403.12 530.79 420.07 535.65 437.03 537.38 453.98 535.71 470.93 518.59 473.18 500.91 475.51 482.84 478.37 464.55 482.19 446.21 487.33 428 494.06 410.07 502.54 392.54 512.79 381.12 508.2 369.66 504.86 358.02 502.39 346.08 500.34 333.73 498.24 320.91 495.62 307.55 492.08 293.64 487.28 294.6 469.99 293.61 452.7 290.84 435.42 286.76 418.13 282.05 400.84 277.49 383.56 273.86 366.27 271.75 348.98 285.46 337.19 299.68 324.53 314.47 311.32 329.86 297.93 345.86 284.71 362.45 272.02 379.58 260.14 397.17 249.31 397.17 249.31 397.17 249.31" stroke-dasharray="9 6" transform="rotate(176.0925925925926, 400, 400)" opacity="0.70"></path><path d="M394.35 256.62Q405.1 262.98 416.01 270.45 427.21 279.1 438.83 288.9 450.99 299.76 463.78 311.52 477.28 323.94 491.55 336.75 495.55 352.71 501.79 368.67 509.33 384.63 517.04 400.59 523.78 416.56 528.53 432.52 530.59 448.48 529.64 464.44 513.8 466.59 497.42 468.97 480.61 471.95 463.53 475.87 446.31 481.03 429.11 487.62 412.04 495.76 395.24 505.48 384.52 501.07 373.67 497.8 362.57 495.33 351.12 493.3 339.26 491.32 326.93 488.99 314.09 485.96 300.75 481.92 301.31 465.62 300.1 449.32 297.3 433.02 293.34 416.72 288.8 400.43 284.36 384.13 280.69 367.83 278.33 351.53 291.07 339.98 304.23 327.75 317.89 315.14 332.09 302.44 346.85 289.98 362.17 278.04 378.02 266.85 394.35 256.62 394.35 256.62 394.35 256.62" stroke-dasharray="9 2" transform="rotate(180.85185185185185, 400, 400)" opacity="0.72"></path><path d="M391.72 263.94Q402.04 269.88 412.59 276.82 423.49 284.79 434.82 293.82 446.67 303.82 459.12 314.67 472.21 326.2 485.97 338.18 490.18 353.15 496.23 368.13 503.3 383.1 510.47 398.07 516.78 413.05 521.39 428.02 523.7 442.99 523.39 457.97 508.81 460.09 493.71 462.54 478.18 465.64 462.33 469.64 446.28 474.77 430.16 481.19 414.06 488.98 398.1 498.16 387.99 493.95 377.67 490.75 367.06 488.3 356.08 486.29 344.68 484.4 332.84 482.31 320.54 479.7 307.78 476.31 307.96 461.01 306.56 445.7 303.76 430.39 299.92 415.08 295.56 399.78 291.26 384.47 287.59 369.16 285.02 353.85 296.8 342.63 308.94 330.9 321.51 318.92 334.54 306.95 348.08 295.26 362.13 284.06 376.68 273.57 391.72 263.94 391.72 263.94 391.72 263.94" stroke-dasharray="11 3" transform="rotate(185.61111111111111, 400, 400)" opacity="0.74"></path><path d="M389.36 271.26Q399.31 276.78 409.53 283.19 420.12 290.52 431.14 298.78 442.65 307.94 454.7 317.89 467.32 328.5 480.52 339.61 484.85 353.6 490.66 367.59 497.26 381.59 503.89 395.58 509.77 409.57 514.22 423.56 516.72 437.55 516.98 451.54 503.62 453.68 489.77 456.24 475.51 459.43 460.91 463.49 446.07 468.57 431.08 474.79 416.03 482.22 401.02 490.84 391.44 486.84 381.6 483.73 371.43 481.3 360.91 479.31 349.98 477.49 338.64 475.59 326.88 473.33 314.72 470.49 314.56 456.17 312.99 441.86 310.19 427.54 306.5 413.22 302.34 398.9 298.19 384.59 294.55 370.27 291.83 355.95 302.68 345.14 313.83 333.97 325.34 322.67 337.24 311.45 349.58 300.53 362.38 290.08 382.5 275.77 389.36 271.26" stroke-dasharray="3 3" transform="rotate(190.37037037037035, 400, 400)" opacity="0.75"></path><path d="M387.36 278.58Q396.96 283.7 406.86 289.58 417.12 296.28 427.79 303.81 438.91 312.13 450.52 321.19 462.61 330.88 475.2 341.08 479.56 354.09 485.08 367.11 491.2 380.12 497.31 393.14 502.77 406.16 507.03 419.17 509.66 432.19 510.39 445.21 498.22 447.41 485.6 450.06 472.59 453.34 459.24 457.42 445.62 462.41 431.81 468.41 417.88 475.45 403.92 483.52 394.79 479.73 385.39 476.72 375.66 474.33 365.58 472.36 355.13 470.6 344.3 468.84 333.11 466.86 321.56 464.47 321.09 451.14 319.38 437.82 316.62 424.49 313.08 411.16 309.12 397.84 305.15 384.51 301.57 371.19 298.75 357.86 308.7 347.54 318.9 337 329.38 326.41 340.2 315.95 351.38 305.8 362.96 296.11 381.16 282.79 387.36 278.58" stroke-dasharray="11 3" transform="rotate(195.12962962962965, 400, 400)" opacity="0.77"></path><path d="M385.79 285.89Q395.04 290.61 404.6 295.99 414.5 302.08 424.78 308.89 435.46 316.4 446.55 324.57 458.06 333.34 469.98 342.61 474.29 354.66 479.5 366.71 485.14 378.76 490.73 390.81 495.77 402.86 499.82 414.91 497.57 434.12 481.19 444.03 469.39 447.37 457.28 451.44 444.9 456.31 432.29 462.05 419.53 468.69 406.67 476.2 397.97 472.63 388.99 469.74 379.69 467.4 370.06 465.46 360.11 463.74 349.82 462.09 339.21 460.34 328.3 458.31 327.55 445.97 325.74 433.63 323.03 421.29 319.66 408.95 315.92 396.61 312.14 384.27 308.66 371.93 305.77 359.59 314.86 349.84 324.14 339.97 333.65 330.12 343.42 320.45 353.5 311.08 363.9 302.14 380.23 289.8 385.79 285.89" stroke-dasharray="1 8" transform="rotate(199.88888888888889, 400, 400)" opacity="0.79"></path><path d="M384.68 293.22Q393.58 297.53 402.77 302.42 412.27 307.91 422.09 314.02 432.27 320.75 442.79 328.06 453.66 335.91 464.86 344.24 469.05 355.33 473.9 366.43 479.07 377.52 484.15 388.61 488.77 399.7 492.59 410.79 491.06 428.61 476.53 438.15 465.92 441.53 455.02 445.54 443.86 450.26 432.48 455.71 420.91 461.92 409.21 468.88 400.91 465.54 392.34 462.78 383.48 460.51 374.33 458.6 364.89 456.93 355.17 455.36 339.56 447.22 332.07 429.32 329.43 417.96 326.24 406.61 322.73 395.25 319.16 383.89 315.8 372.54 312.91 361.18 321.17 352.06 329.57 342.91 338.14 333.84 346.92 324.96 355.94 316.37 365.23 308.17 379.74 296.83 384.68 293.22" stroke-dasharray="9 5" transform="rotate(204.64814814814815, 400, 400)" opacity="0.81"></path><path d="M384.09 300.53Q392.6 304.45 401.36 308.86 410.4 313.77 419.72 319.21 429.32 325.18 439.21 331.66 449.38 338.61 459.81 346.01 463.81 356.15 468.29 366.29 472.98 376.43 477.57 386.57 481.78 396.71 485.34 406.85 484.41 423.28 471.63 432.44 462.17 435.81 452.45 439.74 442.49 444.26 432.32 449.4 421.95 455.17 411.43 461.57 395.27 456.06 378.36 451.79 369.47 450.16 360.35 448.67 345.63 441.25 338.35 424.92 335.82 414.54 332.82 404.16 329.54 393.78 326.2 383.41 323.01 373.03 320.15 362.65 327.61 354.23 335.17 345.83 342.85 337.55 350.69 329.46 358.71 321.66 366.94 314.2 379.74 303.84 384.09 300.53" stroke-dasharray="12 3" transform="rotate(209.4074074074074, 400, 400)" opacity="0.82"></path><path d="M384.04 307.86Q392.1 311.39 400.38 315.33 408.89 319.68 417.63 324.48 426.6 329.72 435.8 335.39 445.21 341.47 454.83 347.95 458.58 357.14 462.67 366.34 466.88 375.53 470.99 384.72 474.79 393.92 478.08 403.11 477.64 418.15 466.49 426.89 458.14 430.21 449.56 434.01 440.77 438.3 431.78 443.1 414.21 449.9 398.13 448.94 382.04 445.15 365.34 442.01 351.6 435.25 344.61 420.46 342.19 411.06 339.39 401.66 336.37 392.26 333.27 382.86 332.23 364.91 340.94 348.75 347.78 341.28 354.73 333.99 361.81 326.97 369.04 320.24 380.24 310.86 384.04 307.86" stroke-dasharray="9 10" transform="rotate(214.16666666666669, 400, 400)" opacity="0.84"></path><path d="M384.51 315.18Q399.79 321.81 415.81 329.81 432.52 339.24 449.89 350.08 457.03 366.59 464.41 383.11 470.81 399.62 475.14 416.13 461.13 421.52 446.34 428.36 430.83 436.82 414.68 446.92 400.5 442.05 385.64 438.34 370.15 435.42 354.11 432.87 350.83 416.01 345.98 399.14 340.37 382.27 334.96 365.4 346.88 351.69 359.02 338.54 378.02 320.73 384.51 315.18" stroke-dasharray="11 8" transform="rotate(218.92592592592592, 400, 400)" opacity="0.86"></path><path d="M385.5 322.49Q399.58 328.31 414.21 335.21 429.36 343.25 444.99 352.42 451.37 367.08 457.83 381.73 463.52 396.38 467.68 411.04 455.55 416.32 442.8 422.8 429.47 430.56 415.59 439.61 402.49 435.18 388.86 431.7 374.76 428.9 360.27 426.51 357.01 411.57 352.55 396.62 347.49 381.68 342.5 366.73 352.97 354.65 363.56 343.11 379.94 327.41 385.5 322.49" stroke-dasharray="3 2" transform="rotate(223.6851851851852, 400, 400)" opacity="0.88"></path><path d="M386.98 329.82Q399.7 334.83 412.82 340.68 426.3 347.4 440.1 355.02 445.69 367.81 451.25 380.61 456.23 393.41 460.12 406.21 449.76 411.3 438.95 417.32 427.68 424.31 415.98 432.28 404.08 428.33 391.8 425.12 379.19 422.48 366.29 420.22 363.15 407.19 359.13 394.15 354.64 381.12 350.13 368.09 359.2 357.66 368.32 347.71 382.27 334.11 386.98 329.82" stroke-dasharray="3 12" transform="rotate(228.44444444444443, 400, 400)" opacity="0.89"></path><path d="M388.89 337.13Q400.1 341.37 411.58 346.22 423.3 351.71 435.22 357.86 439.98 368.82 444.67 379.78 446.36 398.6 434.8 411.92 425.48 418.09 415.84 424.97 405.27 421.51 394.45 418.61 383.42 416.16 372.19 414.05 369.26 402.91 365.71 391.77 361.81 380.64 357.84 369.5 365.55 360.72 373.27 352.34 384.96 340.8 388.89 337.13" stroke-dasharray="7 9" transform="rotate(233.20370370370372, 400, 400)" opacity="0.91"></path><path d="M391.17 344.46Q400.74 347.93 410.47 351.83 420.34 356.18 430.32 360.99 434.26 370.12 438.1 379.25 439.65 395.09 430.38 406.59 414.48 413.29 396.83 412.17 381.4 404.37 372.29 389.52 370.5 372.06 378.38 357.01 387.97 347.5 391.17 344.46" stroke-dasharray="1 11" transform="rotate(237.96296296296296, 400, 400)" opacity="0.93"></path><path d="M393.75 351.77Q409.43 357.52 425.4 364.4 431.52 379.01 436.9 393.61 425.71 401.34 413.98 410.33 398.94 405.8 383.63 402.17 378.87 387.41 373.46 372.64 388.69 356.75 393.75 351.77" stroke-dasharray="9 6" transform="rotate(242.72222222222223, 400, 400)" opacity="0.95"></path><path d="M396.54 359.09Q408.43 363.29 420.44 368.12 424.93 379.06 429.02 390.01 420.82 396.17 412.33 403.01 400.81 399.5 389.18 396.52 385.45 385.47 381.35 374.44 392.76 362.79 396.54 359.09" stroke-dasharray="8 7" transform="rotate(247.48148148148147, 400, 400)" opacity="0.96"></path><path d="M399.43 366.41Q398.36 372.49 399.43 366.41" stroke-dasharray="12 5" transform="rotate(252.24074074074076, 400, 400)" opacity="0.98"></path></g></svg>